<svg width="298" height="51" viewBox="0 0 298 51" fill="none" xmlns="http://www.w3.org/2000/svg">
<g clip-path="url(#clip0_5017_38296)">
<path d="M35.3471 40.9053L36.6694 44.4047C33.6758 45.775 30.2084 46.2808 26.6898 46.2808C13.8096 46.2808 3.36897 36.0484 3.36897 23.4242C3.36897 10.8001 13.8096 0.567627 26.6898 0.567627C36.8903 0.567627 45.5636 6.98694 48.7268 15.926C45.5956 8.14914 37.5914 2.15565 28.3931 2.15565C16.7903 2.15565 7.38384 11.3732 7.38384 22.7455C7.38384 34.1178 16.3901 42.9351 28.3931 42.4036C30.8328 42.2948 33.1668 41.6256 35.3471 40.9053ZM34.5243 6.66998C32.2095 7.02216 30.6182 9.18328 30.9704 11.4949C31.3226 13.8097 33.4837 15.4009 35.7953 15.0487C38.1101 14.6965 39.7013 12.5354 39.3492 10.2238C39.0002 7.90902 36.8391 6.3178 34.5243 6.66998ZM54.9028 21.4232C54.906 24.6729 50.4941 27.4487 45.1185 27.4519C44.6511 27.4519 44.1997 27.4327 43.7546 27.4039C44.952 27.311 46.4536 27.0965 47.6734 26.6099C52.5432 24.6665 52.9594 21.6473 52.9594 21.6473C52.9594 21.6473 49.111 23.5683 46.9019 23.7924C44.6159 24.0261 42.5444 26.3473 41.8721 27.1734C41.808 27.1606 41.7472 27.1446 41.6832 27.1318C42.8934 17.7381 54.9028 21.4232 54.9028 21.4232C54.9028 21.4232 53.3308 17.2418 34.2809 17.2418C24.3558 17.2418 12.5097 17.2931 12.5097 17.2931C12.5097 17.2931 29.2639 19.9985 33.9608 30.6696C37.5754 38.885 41.6447 50.3598 41.6447 50.3598V28.6333C42.8005 29.3633 44.1708 29.9172 45.6884 30.2149C50.5966 31.1722 55.1397 29.0623 55.8345 25.5021C56.1098 24.103 55.7448 22.6847 54.9028 21.4232ZM15.6281 25.294C16.1532 24.849 16.0411 24.2214 15.516 23.7732C14.991 23.3282 13.9312 24.1062 12.8459 22.4253C12.8459 22.4253 13.0155 24.564 13.8 25.23C14.325 25.6782 15.103 25.7422 15.6281 25.294ZM14.9429 31.1242C15.5897 30.8841 16.0251 30.2374 15.8938 29.5618C15.7626 28.8863 15.1607 28.6749 14.5139 28.9151C13.8672 29.1552 14.0273 30.4615 12.0294 30.5831C12.0294 30.5831 13.9792 31.4828 14.9429 31.1242ZM19.3196 27.7433C19.4509 28.4188 20.0176 28.9567 20.7059 28.9375C21.3943 28.9183 21.6984 28.358 21.5704 27.6824C21.4391 27.0069 20.1264 26.9493 20.3345 24.961C20.3313 24.9578 19.1243 26.7315 19.3196 27.7433ZM0.602738 33.8008C0.359412 34.4443 0.561116 35.1967 1.15983 35.5425C1.75533 35.8883 2.30922 35.5713 2.55254 34.9246C2.79587 34.281 1.70731 33.5415 2.92394 31.9566C2.92074 31.9566 0.964525 32.8371 0.602738 33.8008ZM15.7081 35.677C15.9323 36.3269 17.2417 36.202 17.3154 38.1999C17.3154 38.1999 18.2599 36.2725 17.9269 35.2992C17.7028 34.6492 17.0656 34.1978 16.3869 34.3131C15.7081 34.4283 15.484 35.0238 15.7081 35.677ZM6.3369 40.2265C5.64854 40.2233 5.33798 41.504 3.4266 40.9181C3.4266 40.9181 4.93778 42.4421 5.96551 42.4453C6.65386 42.4485 7.28779 41.9938 7.40305 41.3151C7.51831 40.6331 7.02526 40.2265 6.3369 40.2265ZM10.5471 44.8305C10.0124 45.2659 10.1149 45.8966 10.6303 46.3513C11.1458 46.8059 12.2215 46.0503 13.2717 47.7536C13.2717 47.7536 13.1436 45.6117 12.372 44.9297C11.8565 44.4751 11.0817 44.3951 10.5471 44.8305Z" fill="#1C2A3A"/>
</g>
<path d="M80.0652 20.5891C78.9731 20.5891 77.9841 20.3521 77.098 19.8782C76.2223 19.394 75.5321 18.7295 75.0272 17.8847C74.5327 17.0399 74.2854 16.0869 74.2854 15.0257C74.2854 13.9646 74.5379 13.0116 75.0427 12.1668C75.5475 11.3219 76.2378 10.6626 77.1135 10.1887C77.9995 9.70443 78.9886 9.46232 80.0806 9.46232C80.9667 9.46232 81.7754 9.61686 82.5069 9.92594C83.2384 10.235 83.8565 10.6832 84.3614 11.2704L83.0632 12.4913C82.2802 11.6465 81.3169 11.2241 80.1734 11.2241C79.4316 11.2241 78.7671 11.3889 78.1798 11.7186C77.5926 12.038 77.1341 12.4861 76.8044 13.0631C76.4747 13.64 76.3099 14.2942 76.3099 15.0257C76.3099 15.7572 76.4747 16.4114 76.8044 16.9884C77.1341 17.5653 77.5926 18.0186 78.1798 18.3483C78.7671 18.6677 79.4316 18.8274 80.1734 18.8274C81.3169 18.8274 82.2802 18.3998 83.0632 17.5447L84.3614 18.781C83.8565 19.3683 83.2332 19.8164 82.4914 20.1255C81.76 20.4346 80.9512 20.5891 80.0652 20.5891ZM95.8986 9.61686V20.4346H93.8896V15.7984H88.2953V20.4346H86.2863V9.61686H88.2953V14.083H93.8896V9.61686H95.8986ZM105.875 20.4346L103.665 17.2665C103.573 17.2768 103.433 17.282 103.248 17.282H100.806V20.4346H98.7973V9.61686H103.248C104.186 9.61686 104.999 9.7714 105.69 10.0805C106.39 10.3896 106.926 10.8326 107.297 11.4095C107.668 11.9865 107.853 12.6716 107.853 13.4649C107.853 14.2788 107.652 14.9794 107.251 15.5666C106.859 16.1538 106.292 16.5917 105.551 16.8802L108.039 20.4346H105.875ZM105.829 13.4649C105.829 12.7746 105.602 12.244 105.149 11.8731C104.696 11.5022 104.031 11.3168 103.155 11.3168H100.806V15.6284H103.155C104.031 15.6284 104.696 15.443 105.149 15.0721C105.602 14.6909 105.829 14.1551 105.829 13.4649ZM110.101 9.61686H112.11V20.4346H110.101V9.61686ZM118.389 20.5891C117.555 20.5891 116.746 20.4706 115.963 20.2337C115.19 19.9967 114.577 19.6825 114.124 19.291L114.82 17.7301C115.263 18.0804 115.803 18.3689 116.442 18.5956C117.091 18.8119 117.74 18.9201 118.389 18.9201C119.193 18.9201 119.791 18.7913 120.182 18.5337C120.584 18.2762 120.785 17.9362 120.785 17.5138C120.785 17.2047 120.671 16.9523 120.445 16.7565C120.228 16.5505 119.95 16.3908 119.61 16.2775C119.27 16.1642 118.807 16.0354 118.219 15.8911C117.395 15.6954 116.726 15.4996 116.21 15.3039C115.706 15.1081 115.268 14.8042 114.897 14.3921C114.536 13.9697 114.356 13.4031 114.356 12.6922C114.356 12.0946 114.516 11.5537 114.835 11.0695C115.165 10.575 115.654 10.1835 116.303 9.89503C116.963 9.60656 117.766 9.46232 118.714 9.46232C119.373 9.46232 120.022 9.54474 120.661 9.70959C121.3 9.87443 121.851 10.1114 122.315 10.4205L121.681 11.9813C121.207 11.7031 120.713 11.4919 120.198 11.3477C119.682 11.2035 119.183 11.1313 118.699 11.1313C117.905 11.1313 117.313 11.2653 116.921 11.5331C116.54 11.801 116.35 12.1564 116.35 12.5995C116.35 12.9085 116.458 13.1609 116.674 13.3567C116.901 13.5524 117.184 13.707 117.524 13.8203C117.864 13.9336 118.328 14.0624 118.915 14.2067C119.718 14.3921 120.378 14.5879 120.893 14.7939C121.408 14.9897 121.846 15.2936 122.207 15.7057C122.577 16.1178 122.763 16.6741 122.763 17.3747C122.763 17.9723 122.598 18.5131 122.268 18.9974C121.949 19.4816 121.46 19.8679 120.8 20.1564C120.141 20.4449 119.337 20.5891 118.389 20.5891ZM126.799 11.3168H123.213V9.61686H132.393V11.3168H128.808V20.4346H126.799V11.3168ZM140.18 11.3013V14.593H145.404V16.2929H140.18V20.4346H138.171V9.61686H146.068V11.3013H140.18ZM154.559 17.931H149.151L148.084 20.4346H146.013L150.881 9.61686H152.86L157.743 20.4346H155.641L154.559 17.931ZM153.895 16.3547L151.855 11.6259L149.831 16.3547H153.895ZM159.119 9.61686H161.128V20.4346H159.119V9.61686ZM166.248 11.3168H162.663V9.61686H171.842V11.3168H168.257V20.4346H166.248V11.3168ZM182.962 9.61686V20.4346H180.953V15.7984H175.359V20.4346H173.35V9.61686H175.359V14.083H180.953V9.61686H182.962ZM192.327 11.3168H188.741V9.61686H197.921V11.3168H194.336V20.4346H192.327V11.3168ZM205.901 17.931H200.492L199.426 20.4346H197.355L202.223 9.61686H204.201L209.085 20.4346H206.983L205.901 17.931ZM205.237 16.3547L203.197 11.6259L201.172 16.3547H205.237ZM218.126 14.8094C218.723 15.0051 219.197 15.3348 219.547 15.7984C219.898 16.2517 220.073 16.8184 220.073 17.4983C220.073 18.4359 219.712 19.1622 218.991 19.6773C218.27 20.1822 217.219 20.4346 215.839 20.4346H210.461V9.61686H215.529C216.807 9.61686 217.791 9.86928 218.481 10.3741C219.171 10.8686 219.517 11.5537 219.517 12.4295C219.517 12.9652 219.393 13.4391 219.146 13.8512C218.898 14.2633 218.558 14.5827 218.126 14.8094ZM212.47 11.1932V14.1758H215.313C216.014 14.1758 216.549 14.0521 216.92 13.8049C217.301 13.5473 217.492 13.1764 217.492 12.6922C217.492 12.1977 217.301 11.8268 216.92 11.5795C216.549 11.3219 216.014 11.1932 215.313 11.1932H212.47ZM215.715 18.8583C217.271 18.8583 218.048 18.338 218.048 17.2974C218.048 16.2569 217.271 15.7366 215.715 15.7366H212.47V18.8583H215.715ZM230.33 18.7501V20.4346H222.217V9.61686H230.114V11.3013H224.226V14.1139H229.449V15.7675H224.226V18.7501H230.33ZM239.648 20.4346L237.438 17.2665C237.345 17.2768 237.206 17.282 237.021 17.282H234.579V20.4346H232.57V9.61686H237.021C237.958 9.61686 238.772 9.7714 239.462 10.0805C240.163 10.3896 240.699 10.8326 241.069 11.4095C241.44 11.9865 241.626 12.6716 241.626 13.4649C241.626 14.2788 241.425 14.9794 241.023 15.5666C240.632 16.1538 240.065 16.5917 239.323 16.8802L241.811 20.4346H239.648ZM239.601 13.4649C239.601 12.7746 239.375 12.244 238.921 11.8731C238.468 11.5022 237.804 11.3168 236.928 11.3168H234.579V15.6284H236.928C237.804 15.6284 238.468 15.443 238.921 15.0721C239.375 14.6909 239.601 14.1551 239.601 13.4649ZM253.486 9.61686V20.4346H251.832L245.867 13.1094V20.4346H243.874V9.61686H245.527L251.492 16.942V9.61686H253.486ZM263.401 17.931H257.992L256.925 20.4346H254.855L259.723 9.61686H261.701L266.584 20.4346H264.482L263.401 17.931ZM262.736 16.3547L260.696 11.6259L258.672 16.3547H262.736ZM272.816 20.5891C271.724 20.5891 270.735 20.3521 269.849 19.8782C268.973 19.394 268.283 18.7295 267.778 17.8847C267.283 17.0399 267.036 16.0869 267.036 15.0257C267.036 13.9646 267.289 13.0116 267.793 12.1668C268.298 11.3219 268.989 10.6626 269.864 10.1887C270.75 9.70443 271.739 9.46232 272.831 9.46232C273.717 9.46232 274.526 9.61686 275.258 9.92594C275.989 10.235 276.607 10.6832 277.112 11.2704L275.814 12.4913C275.031 11.6465 274.068 11.2241 272.924 11.2241C272.182 11.2241 271.518 11.3889 270.931 11.7186C270.343 12.038 269.885 12.4861 269.555 13.0631C269.226 13.64 269.061 14.2942 269.061 15.0257C269.061 15.7572 269.226 16.4114 269.555 16.9884C269.885 17.5653 270.343 18.0186 270.931 18.3483C271.518 18.6677 272.182 18.8274 272.924 18.8274C274.068 18.8274 275.031 18.3998 275.814 17.5447L277.112 18.781C276.607 19.3683 275.984 19.8164 275.242 20.1255C274.511 20.4346 273.702 20.5891 272.816 20.5891ZM279.037 9.61686H281.046V18.7346H286.702V20.4346H279.037V9.61686ZM296.402 18.7501V20.4346H288.288V9.61686H296.185V11.3013H290.297V14.1139H295.521V15.7675H290.297V18.7501H296.402Z" fill="#1C2A3A"/>
<path d="M75.1051 34.5279H76.0515V43.4805H75.1051V34.5279ZM86.4462 34.5279V43.4805H85.666L79.9108 36.2161V43.4805H78.9644V34.5279H79.7445L85.5126 41.7923V34.5279H86.4462ZM91.1076 35.3464H87.9614V34.5279H95.2002V35.3464H92.054V43.4805H91.1076V35.3464ZM103.043 42.6619V43.4805H96.7122V34.5279H102.851V35.3464H97.6586V38.531H102.288V39.3367H97.6586V42.6619H103.043ZM111.381 43.4805L109.335 40.6029C109.104 40.6284 108.866 40.6412 108.618 40.6412H106.214V43.4805H105.268V34.5279H108.618C109.761 34.5279 110.656 34.8007 111.304 35.3464C111.952 35.8921 112.276 36.6424 112.276 37.5973C112.276 38.2965 112.097 38.8891 111.739 39.3751C111.389 39.8525 110.886 40.1979 110.23 40.411L112.417 43.4805H111.381ZM108.593 39.8355C109.48 39.8355 110.157 39.6394 110.626 39.2472C111.095 38.855 111.33 38.305 111.33 37.5973C111.33 36.8726 111.095 36.3184 110.626 35.9347C110.157 35.5425 109.48 35.3464 108.593 35.3464H106.214V39.8355H108.593ZM121.992 34.5279V43.4805H121.212L115.456 36.2161V43.4805H114.51V34.5279H115.29L121.058 41.7923V34.5279H121.992ZM130.528 41.0888H125.541L124.466 43.4805H123.481L127.574 34.5279H128.508L132.6 43.4805H131.603L130.528 41.0888ZM130.183 40.3215L128.034 35.5127L125.886 40.3215H130.183ZM135.371 35.3464H132.225V34.5279H139.464V35.3464H136.317V43.4805H135.371V35.3464ZM140.976 34.5279H141.922V43.4805H140.976V34.5279ZM148.748 43.5572C147.862 43.5572 147.056 43.3611 146.331 42.9689C145.615 42.5682 145.052 42.0225 144.643 41.3318C144.242 40.6412 144.042 39.8653 144.042 39.0042C144.042 38.143 144.242 37.3671 144.643 36.6765C145.052 35.9859 145.615 35.4445 146.331 35.0522C147.056 34.6515 147.862 34.4511 148.748 34.4511C149.635 34.4511 150.432 34.6473 151.14 35.0395C151.856 35.4317 152.419 35.9773 152.828 36.6765C153.237 37.3671 153.442 38.143 153.442 39.0042C153.442 39.8653 153.237 40.6455 152.828 41.3446C152.419 42.0353 151.856 42.5767 151.14 42.9689C150.432 43.3611 149.635 43.5572 148.748 43.5572ZM148.748 42.7131C149.456 42.7131 150.096 42.5554 150.667 42.2399C151.238 41.9159 151.686 41.4725 152.01 40.9098C152.334 40.3385 152.496 39.7033 152.496 39.0042C152.496 38.305 152.334 37.6741 152.01 37.1113C151.686 36.5401 151.238 36.0967 150.667 35.7812C150.096 35.4572 149.456 35.2952 148.748 35.2952C148.041 35.2952 147.397 35.4572 146.817 35.7812C146.246 36.0967 145.794 36.5401 145.462 37.1113C145.138 37.6741 144.976 38.305 144.976 39.0042C144.976 39.7033 145.138 40.3385 145.462 40.9098C145.794 41.4725 146.246 41.9159 146.817 42.2399C147.397 42.5554 148.041 42.7131 148.748 42.7131ZM163.045 34.5279V43.4805H162.265L156.51 36.2161V43.4805H155.563V34.5279H156.344L162.112 41.7923V34.5279H163.045ZM171.582 41.0888H166.594L165.52 43.4805H164.535L168.628 34.5279H169.561L173.654 43.4805H172.656L171.582 41.0888ZM171.237 40.3215L169.088 35.5127L166.939 40.3215H171.237ZM175.135 34.5279H176.081V42.6619H181.095V43.4805H175.135V34.5279ZM189.901 43.5572C189.014 43.5572 188.213 43.3611 187.497 42.9689C186.789 42.5767 186.231 42.0353 185.821 41.3446C185.421 40.6455 185.22 39.8653 185.22 39.0042C185.22 38.143 185.421 37.3671 185.821 36.6765C186.231 35.9773 186.793 35.4317 187.51 35.0395C188.226 34.6473 189.027 34.4511 189.914 34.4511C190.579 34.4511 191.193 34.562 191.756 34.7837C192.318 35.0054 192.796 35.3294 193.188 35.7557L192.587 36.3568C191.888 35.6491 191.005 35.2952 189.94 35.2952C189.232 35.2952 188.588 35.4572 188.008 35.7812C187.429 36.1052 186.972 36.5486 186.64 37.1113C186.316 37.6741 186.154 38.305 186.154 39.0042C186.154 39.7033 186.316 40.3343 186.64 40.897C186.972 41.4597 187.429 41.9031 188.008 42.2271C188.588 42.5511 189.232 42.7131 189.94 42.7131C191.014 42.7131 191.896 42.355 192.587 41.6388L193.188 42.2399C192.796 42.6662 192.314 42.9945 191.743 43.2247C191.18 43.4464 190.566 43.5572 189.901 43.5572ZM202.687 34.5279V43.4805H201.754V39.3495H196.152V43.4805H195.206V34.5279H196.152V38.5182H201.754V34.5279H202.687ZM209.216 43.5572C208.057 43.5572 207.153 43.2247 206.505 42.5596C205.857 41.8946 205.533 40.9269 205.533 39.6564V34.5279H206.479V39.6181C206.479 40.6583 206.714 41.4342 207.183 41.9457C207.652 42.4573 208.329 42.7131 209.216 42.7131C210.111 42.7131 210.793 42.4573 211.262 41.9457C211.731 41.4342 211.966 40.6583 211.966 39.6181V34.5279H212.887V39.6564C212.887 40.9269 212.563 41.8946 211.915 42.5596C211.275 43.2247 210.376 43.5572 209.216 43.5572ZM221.852 43.4805L219.806 40.6029C219.575 40.6284 219.337 40.6412 219.089 40.6412H216.685V43.4805H215.739V34.5279H219.089C220.232 34.5279 221.127 34.8007 221.775 35.3464C222.423 35.8921 222.747 36.6424 222.747 37.5973C222.747 38.2965 222.568 38.8891 222.21 39.3751C221.86 39.8525 221.357 40.1979 220.701 40.411L222.888 43.4805H221.852ZM219.064 39.8355C219.951 39.8355 220.628 39.6394 221.097 39.2472C221.566 38.855 221.801 38.305 221.801 37.5973C221.801 36.8726 221.566 36.3184 221.097 35.9347C220.628 35.5425 219.951 35.3464 219.064 35.3464H216.685V39.8355H219.064ZM228.869 43.5572C227.982 43.5572 227.181 43.3611 226.465 42.9689C225.757 42.5767 225.198 42.0353 224.789 41.3446C224.388 40.6455 224.188 39.8653 224.188 39.0042C224.188 38.143 224.388 37.3671 224.789 36.6765C225.198 35.9773 225.761 35.4317 226.477 35.0395C227.194 34.6473 227.995 34.4511 228.882 34.4511C229.547 34.4511 230.161 34.562 230.723 34.7837C231.286 35.0054 231.764 35.3294 232.156 35.7557L231.555 36.3568C230.856 35.6491 229.973 35.2952 228.907 35.2952C228.2 35.2952 227.556 35.4572 226.976 35.7812C226.396 36.1052 225.94 36.5486 225.608 37.1113C225.284 37.6741 225.122 38.305 225.122 39.0042C225.122 39.7033 225.284 40.3343 225.608 40.897C225.94 41.4597 226.396 41.9031 226.976 42.2271C227.556 42.5511 228.2 42.7131 228.907 42.7131C229.982 42.7131 230.864 42.355 231.555 41.6388L232.156 42.2399C231.764 42.6662 231.282 42.9945 230.711 43.2247C230.148 43.4464 229.534 43.5572 228.869 43.5572ZM241.655 34.5279V43.4805H240.722V39.3495H235.12V43.4805H234.173V34.5279H235.12V38.5182H240.722V34.5279H241.655ZM250.908 42.6619V43.4805H244.577V34.5279H250.716V35.3464H245.524V38.531H250.153V39.3367H245.524V42.6619H250.908ZM255.601 43.5572C254.936 43.5572 254.296 43.4506 253.683 43.2375C253.077 43.0243 252.608 42.7429 252.276 42.3934L252.647 41.6644C252.971 41.9884 253.401 42.2527 253.938 42.4573C254.476 42.6534 255.03 42.7515 255.601 42.7515C256.402 42.7515 257.004 42.6065 257.404 42.3166C257.805 42.0182 258.005 41.6345 258.005 41.1656C258.005 40.8075 257.895 40.5219 257.673 40.3087C257.46 40.0955 257.195 39.9335 256.88 39.8227C256.564 39.7033 256.125 39.5754 255.563 39.439C254.889 39.2685 254.352 39.1065 253.951 38.953C253.55 38.791 253.205 38.548 252.915 38.224C252.634 37.9 252.493 37.4609 252.493 36.9067C252.493 36.4548 252.613 36.0456 252.851 35.6789C253.09 35.3038 253.457 35.0054 253.951 34.7837C254.446 34.562 255.06 34.4511 255.793 34.4511C256.304 34.4511 256.803 34.5236 257.289 34.6686C257.784 34.805 258.21 34.9968 258.568 35.2441L258.248 35.9987C257.873 35.7514 257.473 35.5681 257.046 35.4487C256.62 35.3208 256.202 35.2569 255.793 35.2569C255.008 35.2569 254.416 35.4104 254.015 35.7173C253.623 36.0157 253.427 36.4037 253.427 36.8811C253.427 37.2392 253.533 37.5291 253.747 37.7508C253.968 37.964 254.241 38.1302 254.565 38.2496C254.898 38.3604 255.341 38.4841 255.895 38.6205C256.552 38.7825 257.08 38.9445 257.481 39.1065C257.89 39.26 258.236 39.4987 258.517 39.8227C258.798 40.1382 258.939 40.5687 258.939 41.1144C258.939 41.5663 258.815 41.9798 258.568 42.355C258.329 42.7216 257.958 43.0158 257.455 43.2375C256.952 43.4506 256.334 43.5572 255.601 43.5572Z" fill="#1C2A3A"/>
<defs>
<clipPath id="clip0_5017_38296">
<rect width="56.3491" height="50.8231" fill="white" transform="translate(0 0.177002)"/>
</clipPath>
</defs>
</svg>
