<svg width="24" height="24" viewBox="0 0 24 24" fill="none" xmlns="http://www.w3.org/2000/svg">
<path d="M8 12.001C10.7614 12.001 13 9.76238 13 7.00098C13 4.23955 10.7614 2.00098 8 2.00098C5.2386 2.00098 3 4.23955 3 7.00098C3 9.76238 5.2386 12.001 8 12.001Z" stroke="black" stroke-opacity="0.3" stroke-width="1.8" stroke-linejoin="round"/>
<path d="M13.001 7.60156C13.0082 7.60871 15.3625 10.5694 20.0638 16.4834C20.2291 16.6821 20.2158 16.974 20.033 17.1568L17.9913 19.1985C17.8085 19.3813 17.5166 19.3946 17.3179 19.2293L8.91211 12.0006" stroke="black" stroke-opacity="0.3" stroke-width="1.8" stroke-linecap="round" stroke-linejoin="round"/>
<path d="M13.2344 12.2354L14.6486 13.6496" stroke="black" stroke-opacity="0.3" stroke-width="1.8" stroke-linecap="round" stroke-linejoin="round"/>
<path d="M8.5 22.0426C9.4583 20.7935 10.6234 20.1689 11.9953 20.1689C14.0532 20.1689 16.4815 22.7543 18.5532 22.3984C20.6248 22.0426 21.2178 19.9994 19.9426 18.8682" stroke="black" stroke-opacity="0.3" stroke-width="1.8" stroke-linecap="round" stroke-linejoin="round"/>
</svg>
