<svg width="32" height="31" viewBox="0 0 32 31" fill="none" xmlns="http://www.w3.org/2000/svg">
<path d="M29.6904 0.0246582H2.46738C1.63221 0.0246582 0.955078 0.701701 0.955078 1.53696V28.7599C0.955078 29.5952 1.63221 30.2722 2.46738 30.2722H29.6904C30.5256 30.2722 31.2027 29.5952 31.2027 28.7599V1.53696C31.2027 0.701701 30.5256 0.0246582 29.6904 0.0246582ZM26.5066 8.85534L24.0895 8.85654C22.1942 8.85654 21.8272 9.75715 21.8272 11.0787V13.993H26.3475L25.7589 18.5578H21.8274V30.2706H17.1134V18.5578H13.1718V13.993H17.1134V10.6267C16.8105 7.60417 19.0153 4.90844 22.0378 4.6057C22.3524 4.57414 22.6691 4.56979 22.9845 4.59268C24.1609 4.58852 25.3367 4.64862 26.5066 4.77267V8.85534Z" fill="#1C2A3A"/>
</svg>
