<svg width="39" height="34" viewBox="0 0 39 34" fill="none" xmlns="http://www.w3.org/2000/svg">
<path d="M24.0415 27.5652L24.9408 29.9453C22.9048 30.8773 20.5464 31.2214 18.1533 31.2214C9.39287 31.2214 2.29178 24.2618 2.29178 15.6756C2.29178 7.08943 9.39287 0.129883 18.1533 0.129883C25.0911 0.129883 30.9901 4.49593 33.1416 10.5757C31.0119 5.2864 25.5679 1.20996 19.3118 1.20996C11.4202 1.20996 5.02246 7.47922 5.02246 15.214C5.02246 22.9488 11.148 28.9458 19.3118 28.5843C20.9711 28.5103 22.5585 28.0552 24.0415 27.5652ZM23.4818 4.28035C21.9074 4.51989 20.8252 5.98975 21.0647 7.56197C21.3042 9.13636 22.7741 10.2186 24.3463 9.97908C25.9207 9.73955 27.003 8.26968 26.7634 6.69747C26.5261 5.12308 25.0562 4.04082 23.4818 4.28035ZM37.3421 14.3146C37.3443 16.5249 34.3436 18.4129 30.6874 18.415C30.3695 18.415 30.0625 18.402 29.7598 18.3824C30.5742 18.3192 31.5955 18.1733 32.4251 17.8423C35.7372 16.5205 36.0203 14.4671 36.0203 14.4671C36.0203 14.4671 33.4029 15.7736 31.9003 15.9261C30.3456 16.085 28.9367 17.6638 28.4794 18.2256C28.4358 18.2169 28.3944 18.206 28.3509 18.1973C29.174 11.8083 37.3421 14.3146 37.3421 14.3146C37.3421 14.3146 36.2729 11.4707 23.3163 11.4707C16.5658 11.4707 8.50877 11.5056 8.50877 11.5056C8.50877 11.5056 19.9041 13.3456 23.0986 20.6035C25.5571 26.1912 28.3248 33.9956 28.3248 33.9956V19.2186C29.1109 19.715 30.0429 20.0918 31.075 20.2943C34.4133 20.9454 37.5033 19.5104 37.9758 17.0889C38.1631 16.1373 37.9148 15.1726 37.3421 14.3146ZM10.6297 16.9473C10.9869 16.6447 10.9106 16.2179 10.5535 15.913C10.1964 15.6103 9.47562 16.1395 8.73742 14.9962C8.73742 14.9962 8.85283 16.4509 9.38633 16.9038C9.74346 17.2087 10.2726 17.2522 10.6297 16.9473ZM10.1637 20.9127C10.6036 20.7494 10.8998 20.3095 10.8105 19.8501C10.7212 19.3906 10.3118 19.2469 9.87194 19.4102C9.43206 19.5735 9.54094 20.462 8.18213 20.5447C8.18213 20.5447 9.50828 21.1566 10.1637 20.9127ZM13.1405 18.6132C13.2298 19.0727 13.6152 19.4385 14.0834 19.4254C14.5516 19.4124 14.7584 19.0313 14.6713 18.5718C14.582 18.1124 13.6892 18.0732 13.8308 16.7209C13.8286 16.7187 13.0077 17.9251 13.1405 18.6132ZM0.410345 22.7332C0.244849 23.1709 0.382036 23.6826 0.789244 23.9178C1.19427 24.153 1.571 23.9374 1.73649 23.4975C1.90199 23.0598 1.16161 22.5568 1.98909 21.4789C1.98691 21.4789 0.656411 22.0777 0.410345 22.7332ZM10.6842 24.0092C10.8366 24.4513 11.7272 24.3664 11.7773 25.7252C11.7773 25.7252 12.4197 24.4143 12.1932 23.7523C12.0408 23.3102 11.6075 23.0032 11.1458 23.0816C10.6842 23.16 10.5317 23.565 10.6842 24.0092ZM4.31039 27.1036C3.84221 27.1014 3.63099 27.9724 2.33097 27.5739C2.33097 27.5739 3.35879 28.6105 4.05779 28.6126C4.52597 28.6148 4.95713 28.3056 5.03553 27.844C5.11392 27.3801 4.77857 27.1036 4.31039 27.1036ZM7.17391 30.2349C6.81026 30.5311 6.87994 30.9601 7.23053 31.2693C7.58112 31.5785 8.31279 31.0646 9.02703 32.2231C9.02703 32.2231 8.93993 30.7663 8.41513 30.3025C8.06454 29.9932 7.53757 29.9388 7.17391 30.2349Z" fill="#1C2A3A"/>
</svg>
