<svg width="420" height="265" viewBox="0 0 420 265" fill="none" xmlns="http://www.w3.org/2000/svg">
<path d="M232.4 127.21L236.53 138.14C227.18 142.42 216.35 144 205.36 144C165.13 144 132.52 112.04 132.52 72.6102C132.52 33.1802 165.13 1.22021 205.36 1.22021C237.22 1.22021 264.31 21.2702 274.19 49.1902C264.41 24.9002 239.41 6.18021 210.68 6.18021C174.44 6.18021 145.06 34.9702 145.06 70.4902C145.06 106.01 173.19 133.55 210.68 131.89C218.3 131.55 225.59 129.46 232.4 127.21ZM229.83 20.2802C222.6 21.3802 217.63 28.1302 218.73 35.3502C219.83 42.5802 226.58 47.5502 233.8 46.4502C241.03 45.3502 246 38.6002 244.9 31.3802C243.81 24.1502 237.06 19.1802 229.83 20.2802ZM293.48 66.3602C293.49 76.5102 279.71 85.1802 262.92 85.1902C261.46 85.1902 260.05 85.1302 258.66 85.0402C262.4 84.7502 267.09 84.0802 270.9 82.5602C286.11 76.4902 287.41 67.0602 287.41 67.0602C287.41 67.0602 275.39 73.0602 268.49 73.7602C261.35 74.4902 254.88 81.7402 252.78 84.3202C252.58 84.2802 252.39 84.2302 252.19 84.1902C255.97 54.8502 293.48 66.3602 293.48 66.3602C293.48 66.3602 288.57 53.3002 229.07 53.3002C198.07 53.3002 161.07 53.4602 161.07 53.4602C161.07 53.4602 213.4 61.9102 228.07 95.2402C239.36 120.9 252.07 156.74 252.07 156.74V88.8802C255.68 91.1602 259.96 92.8902 264.7 93.8202C280.03 96.8102 294.22 90.2202 296.39 79.1002C297.25 74.7302 296.11 70.3002 293.48 66.3602ZM170.81 78.4502C172.45 77.0602 172.1 75.1002 170.46 73.7002C168.82 72.3102 165.51 74.7402 162.12 69.4902C162.12 69.4902 162.65 76.1702 165.1 78.2502C166.74 79.6502 169.17 79.8502 170.81 78.4502ZM168.67 96.6602C170.69 95.9102 172.05 93.8902 171.64 91.7802C171.23 89.6702 169.35 89.0102 167.33 89.7602C165.31 90.5102 165.81 94.5902 159.57 94.9702C159.57 94.9702 165.66 97.7802 168.67 96.6602ZM182.34 86.1002C182.75 88.2102 184.52 89.8902 186.67 89.8302C188.82 89.7702 189.77 88.0202 189.37 85.9102C188.96 83.8002 184.86 83.6202 185.51 77.4102C185.5 77.4002 181.73 82.9402 182.34 86.1002ZM123.88 105.02C123.12 107.03 123.75 109.38 125.62 110.46C127.48 111.54 129.21 110.55 129.97 108.53C130.73 106.52 127.33 104.21 131.13 99.2602C131.12 99.2602 125.01 102.01 123.88 105.02ZM171.06 110.88C171.76 112.91 175.85 112.52 176.08 118.76C176.08 118.76 179.03 112.74 177.99 109.7C177.29 107.67 175.3 106.26 173.18 106.62C171.06 106.98 170.36 108.84 171.06 110.88ZM141.79 125.09C139.64 125.08 138.67 129.08 132.7 127.25C132.7 127.25 137.42 132.01 140.63 132.02C142.78 132.03 144.76 130.61 145.12 128.49C145.48 126.36 143.94 125.09 141.79 125.09ZM154.94 139.47C153.27 140.83 153.59 142.8 155.2 144.22C156.81 145.64 160.17 143.28 163.45 148.6C163.45 148.6 163.05 141.91 160.64 139.78C159.03 138.36 156.61 138.11 154.94 139.47Z" fill="white"/>
<path d="M12.122 217.03C10.0727 217.03 8.21667 216.586 6.554 215.696C4.91067 214.788 3.61533 213.541 2.668 211.955C1.74 210.37 1.276 208.582 1.276 206.59C1.276 204.599 1.74967 202.811 2.697 201.225C3.64433 199.64 4.93967 198.403 6.583 197.513C8.24567 196.605 10.1017 196.15 12.151 196.15C13.8137 196.15 15.3313 196.44 16.704 197.02C18.0767 197.6 19.2367 198.441 20.184 199.543L17.748 201.834C16.2787 200.249 14.471 199.456 12.325 199.456C10.933 199.456 9.686 199.766 8.584 200.384C7.482 200.984 6.62167 201.825 6.003 202.907C5.38433 203.99 5.075 205.218 5.075 206.59C5.075 207.963 5.38433 209.191 6.003 210.273C6.62167 211.356 7.482 212.207 8.584 212.825C9.686 213.425 10.933 213.724 12.325 213.724C14.471 213.724 16.2787 212.922 17.748 211.317L20.184 213.637C19.2367 214.739 18.067 215.58 16.675 216.16C15.3023 216.74 13.7847 217.03 12.122 217.03ZM41.8343 196.44V216.74H38.0643V208.04H27.5663V216.74H23.7963V196.44H27.5663V204.821H38.0643V196.44H41.8343ZM60.5559 216.74L56.4089 210.795C56.2349 210.815 55.9739 210.824 55.6259 210.824H51.0439V216.74H47.2739V196.44H55.6259C57.3852 196.44 58.9125 196.73 60.2079 197.31C61.5225 197.89 62.5279 198.722 63.2239 199.804C63.9199 200.887 64.2679 202.173 64.2679 203.661C64.2679 205.189 63.8909 206.503 63.1369 207.605C62.4022 208.707 61.3389 209.529 59.9469 210.07L64.6159 216.74H60.5559ZM60.4689 203.661C60.4689 202.366 60.0435 201.37 59.1929 200.674C58.3422 199.978 57.0952 199.63 55.4519 199.63H51.0439V207.721H55.4519C57.0952 207.721 58.3422 207.373 59.1929 206.677C60.0435 205.962 60.4689 204.957 60.4689 203.661ZM68.4858 196.44H72.2558V216.74H68.4858V196.44ZM84.0395 217.03C82.4735 217.03 80.9558 216.808 79.4865 216.363C78.0365 215.919 76.8862 215.329 76.0355 214.594L77.3405 211.665C78.1718 212.323 79.1868 212.864 80.3855 213.289C81.6035 213.695 82.8215 213.898 84.0395 213.898C85.5475 213.898 86.6688 213.657 87.4035 213.173C88.1575 212.69 88.5345 212.052 88.5345 211.259C88.5345 210.679 88.3218 210.206 87.8965 209.838C87.4905 209.452 86.9685 209.152 86.3305 208.939C85.6925 208.727 84.8225 208.485 83.7205 208.214C82.1738 207.847 80.9172 207.48 79.9505 207.112C79.0032 206.745 78.1815 206.175 77.4855 205.401C76.8088 204.609 76.4705 203.545 76.4705 202.211C76.4705 201.09 76.7702 200.075 77.3695 199.166C77.9882 198.238 78.9065 197.504 80.1245 196.962C81.3618 196.421 82.8698 196.15 84.6485 196.15C85.8858 196.15 87.1038 196.305 88.3025 196.614C89.5012 196.924 90.5355 197.368 91.4055 197.948L90.2165 200.877C89.3272 200.355 88.3992 199.959 87.4325 199.688C86.4658 199.418 85.5282 199.282 84.6195 199.282C83.1308 199.282 82.0192 199.534 81.2845 200.036C80.5692 200.539 80.2115 201.206 80.2115 202.037C80.2115 202.617 80.4145 203.091 80.8205 203.458C81.2458 203.826 81.7775 204.116 82.4155 204.328C83.0535 204.541 83.9235 204.783 85.0255 205.053C86.5335 205.401 87.7708 205.769 88.7375 206.155C89.7042 206.523 90.5258 207.093 91.2025 207.866C91.8985 208.64 92.2465 209.684 92.2465 210.998C92.2465 212.12 91.9372 213.135 91.3185 214.043C90.7192 214.952 89.8008 215.677 88.5635 216.218C87.3262 216.76 85.8182 217.03 84.0395 217.03ZM99.8196 199.63H93.0916V196.44H110.318V199.63H103.59V216.74H99.8196V199.63ZM124.932 199.601V205.778H134.734V208.968H124.932V216.74H121.162V196.44H135.981V199.601H124.932ZM151.914 212.042H141.764L139.763 216.74H135.877L145.012 196.44H148.724L157.888 216.74H153.944L151.914 212.042ZM150.667 209.084L146.839 200.21L143.04 209.084H150.667ZM160.47 196.44H164.24V216.74H160.47V196.44ZM173.849 199.63H167.121V196.44H184.347V199.63H177.619V216.74H173.849V199.63ZM205.214 196.44V216.74H201.444V208.04H190.946V216.74H187.176V196.44H190.946V204.821H201.444V196.44H205.214ZM222.786 199.63H216.058V196.44H233.284V199.63H226.556V216.74H222.786V199.63ZM248.26 212.042H238.11L236.109 216.74H232.223L241.358 196.44H245.07L254.234 216.74H250.29L248.26 212.042ZM247.013 209.084L243.185 200.21L239.386 209.084H247.013ZM271.2 206.184C272.321 206.552 273.211 207.17 273.868 208.04C274.525 208.891 274.854 209.954 274.854 211.23C274.854 212.99 274.177 214.353 272.824 215.319C271.471 216.267 269.499 216.74 266.908 216.74H256.816V196.44H266.328C268.725 196.44 270.572 196.914 271.867 197.861C273.162 198.789 273.81 200.075 273.81 201.718C273.81 202.724 273.578 203.613 273.114 204.386C272.65 205.16 272.012 205.759 271.2 206.184ZM260.586 199.398V204.995H265.922C267.237 204.995 268.242 204.763 268.938 204.299C269.653 203.816 270.011 203.12 270.011 202.211C270.011 201.283 269.653 200.587 268.938 200.123C268.242 199.64 267.237 199.398 265.922 199.398H260.586ZM266.676 213.782C269.595 213.782 271.055 212.806 271.055 210.853C271.055 208.901 269.595 207.924 266.676 207.924H260.586V213.782H266.676ZM294.102 213.579V216.74H278.877V196.44H293.696V199.601H282.647V204.879H292.449V207.982H282.647V213.579H294.102ZM311.587 216.74L307.44 210.795C307.266 210.815 307.005 210.824 306.657 210.824H302.075V216.74H298.305V196.44H306.657C308.416 196.44 309.944 196.73 311.239 197.31C312.554 197.89 313.559 198.722 314.255 199.804C314.951 200.887 315.299 202.173 315.299 203.661C315.299 205.189 314.922 206.503 314.168 207.605C313.433 208.707 312.37 209.529 310.978 210.07L315.647 216.74H311.587ZM311.5 203.661C311.5 202.366 311.075 201.37 310.224 200.674C309.373 199.978 308.126 199.63 306.483 199.63H302.075V207.721H306.483C308.126 207.721 309.373 207.373 310.224 206.677C311.075 205.962 311.5 204.957 311.5 203.661ZM337.555 196.44V216.74H334.452L323.258 202.994V216.74H319.517V196.44H322.62L333.814 210.186V196.44H337.555ZM356.161 212.042H346.011L344.01 216.74H340.124L349.259 196.44H352.971L362.135 216.74H358.191L356.161 212.042ZM354.914 209.084L351.086 200.21L347.287 209.084H354.914ZM373.829 217.03C371.78 217.03 369.924 216.586 368.261 215.696C366.618 214.788 365.322 213.541 364.375 211.955C363.447 210.37 362.983 208.582 362.983 206.59C362.983 204.599 363.457 202.811 364.404 201.225C365.351 199.64 366.647 198.403 368.29 197.513C369.953 196.605 371.809 196.15 373.858 196.15C375.521 196.15 377.038 196.44 378.411 197.02C379.784 197.6 380.944 198.441 381.891 199.543L379.455 201.834C377.986 200.249 376.178 199.456 374.032 199.456C372.64 199.456 371.393 199.766 370.291 200.384C369.189 200.984 368.329 201.825 367.71 202.907C367.091 203.99 366.782 205.218 366.782 206.59C366.782 207.963 367.091 209.191 367.71 210.273C368.329 211.356 369.189 212.207 370.291 212.825C371.393 213.425 372.64 213.724 374.032 213.724C376.178 213.724 377.986 212.922 379.455 211.317L381.891 213.637C380.944 214.739 379.774 215.58 378.382 216.16C377.009 216.74 375.492 217.03 373.829 217.03ZM385.503 196.44H389.273V213.55H399.887V216.74H385.503V196.44ZM418.089 213.579V216.74H402.864V196.44H417.683V199.601H406.634V204.879H416.436V207.982H406.634V213.579H418.089Z" fill="white"/>
<path d="M38.8141 241.94H40.5901V258.74H38.8141V241.94ZM60.0963 241.94V258.74H58.6323L47.8323 245.108V258.74H46.0563V241.94H47.5203L58.3443 255.572V241.94H60.0963ZM68.8438 243.476H62.9398V241.94H76.5238V243.476H70.6198V258.74H68.8438V243.476ZM91.241 257.204V258.74H79.361V241.94H90.881V243.476H81.137V249.452H89.825V250.964H81.137V257.204H91.241ZM106.888 258.74L103.048 253.34C102.616 253.388 102.168 253.412 101.704 253.412H97.1917V258.74H95.4157V241.94H101.704C103.848 241.94 105.528 242.452 106.744 243.476C107.96 244.5 108.568 245.908 108.568 247.7C108.568 249.012 108.232 250.124 107.56 251.036C106.904 251.932 105.96 252.58 104.728 252.98L108.832 258.74H106.888ZM101.656 251.9C103.32 251.9 104.592 251.532 105.472 250.796C106.352 250.06 106.792 249.028 106.792 247.7C106.792 246.34 106.352 245.3 105.472 244.58C104.592 243.844 103.32 243.476 101.656 243.476H97.1917V251.9H101.656ZM126.799 241.94V258.74H125.335L114.535 245.108V258.74H112.759V241.94H114.223L125.047 255.572V241.94H126.799ZM142.819 254.252H133.459L131.443 258.74H129.595L137.275 241.94H139.027L146.707 258.74H144.835L142.819 254.252ZM142.171 252.812L138.139 243.788L134.107 252.812H142.171ZM151.906 243.476H146.002V241.94H159.586V243.476H153.682V258.74H151.906V243.476ZM162.424 241.94H164.2V258.74H162.424V241.94ZM177.01 258.884C175.346 258.884 173.834 258.516 172.474 257.78C171.13 257.028 170.074 256.004 169.306 254.708C168.554 253.412 168.178 251.956 168.178 250.34C168.178 248.724 168.554 247.268 169.306 245.972C170.074 244.676 171.13 243.66 172.474 242.924C173.834 242.172 175.346 241.796 177.01 241.796C178.674 241.796 180.17 242.164 181.498 242.9C182.842 243.636 183.898 244.66 184.666 245.972C185.434 247.268 185.818 248.724 185.818 250.34C185.818 251.956 185.434 253.42 184.666 254.732C183.898 256.028 182.842 257.044 181.498 257.78C180.17 258.516 178.674 258.884 177.01 258.884ZM177.01 257.3C178.338 257.3 179.538 257.004 180.61 256.412C181.682 255.804 182.522 254.972 183.13 253.916C183.738 252.844 184.042 251.652 184.042 250.34C184.042 249.028 183.738 247.844 183.13 246.788C182.522 245.716 181.682 244.884 180.61 244.292C179.538 243.684 178.338 243.38 177.01 243.38C175.682 243.38 174.474 243.684 173.386 244.292C172.314 244.884 171.466 245.716 170.842 246.788C170.234 247.844 169.93 249.028 169.93 250.34C169.93 251.652 170.234 252.844 170.842 253.916C171.466 254.972 172.314 255.804 173.386 256.412C174.474 257.004 175.682 257.3 177.01 257.3ZM203.839 241.94V258.74H202.375L191.575 245.108V258.74H189.799V241.94H191.263L202.087 255.572V241.94H203.839ZM219.858 254.252H210.498L208.482 258.74H206.634L214.314 241.94H216.066L223.746 258.74H221.874L219.858 254.252ZM219.21 252.812L215.178 243.788L211.146 252.812H219.21ZM226.525 241.94H228.301V257.204H237.709V258.74H226.525V241.94ZM254.235 258.884C252.571 258.884 251.067 258.516 249.723 257.78C248.395 257.044 247.347 256.028 246.579 254.732C245.827 253.42 245.451 251.956 245.451 250.34C245.451 248.724 245.827 247.268 246.579 245.972C247.347 244.66 248.403 243.636 249.747 242.9C251.091 242.164 252.595 241.796 254.259 241.796C255.507 241.796 256.659 242.004 257.715 242.42C258.771 242.836 259.667 243.444 260.403 244.244L259.275 245.372C257.963 244.044 256.307 243.38 254.307 243.38C252.979 243.38 251.771 243.684 250.683 244.292C249.595 244.9 248.739 245.732 248.115 246.788C247.507 247.844 247.203 249.028 247.203 250.34C247.203 251.652 247.507 252.836 248.115 253.892C248.739 254.948 249.595 255.78 250.683 256.388C251.771 256.996 252.979 257.3 254.307 257.3C256.323 257.3 257.979 256.628 259.275 255.284L260.403 256.412C259.667 257.212 258.763 257.828 257.691 258.26C256.635 258.676 255.483 258.884 254.235 258.884ZM278.229 241.94V258.74H276.477V250.988H265.965V258.74H264.189V241.94H265.965V249.428H276.477V241.94H278.229ZM290.481 258.884C288.305 258.884 286.609 258.26 285.393 257.012C284.177 255.764 283.569 253.948 283.569 251.564V241.94H285.345V251.492C285.345 253.444 285.785 254.9 286.665 255.86C287.545 256.82 288.817 257.3 290.481 257.3C292.161 257.3 293.441 256.82 294.321 255.86C295.201 254.9 295.641 253.444 295.641 251.492V241.94H297.369V251.564C297.369 253.948 296.761 255.764 295.545 257.012C294.345 258.26 292.657 258.884 290.481 258.884ZM314.192 258.74L310.352 253.34C309.92 253.388 309.472 253.412 309.008 253.412H304.496V258.74H302.72V241.94H309.008C311.152 241.94 312.832 242.452 314.048 243.476C315.264 244.5 315.872 245.908 315.872 247.7C315.872 249.012 315.536 250.124 314.864 251.036C314.208 251.932 313.264 252.58 312.032 252.98L316.136 258.74H314.192ZM308.96 251.9C310.624 251.9 311.896 251.532 312.776 250.796C313.656 250.06 314.096 249.028 314.096 247.7C314.096 246.34 313.656 245.3 312.776 244.58C311.896 243.844 310.624 243.476 308.96 243.476H304.496V251.9H308.96ZM327.36 258.884C325.696 258.884 324.192 258.516 322.848 257.78C321.52 257.044 320.472 256.028 319.704 254.732C318.952 253.42 318.576 251.956 318.576 250.34C318.576 248.724 318.952 247.268 319.704 245.972C320.472 244.66 321.528 243.636 322.872 242.9C324.216 242.164 325.72 241.796 327.384 241.796C328.632 241.796 329.784 242.004 330.84 242.42C331.896 242.836 332.792 243.444 333.528 244.244L332.4 245.372C331.088 244.044 329.432 243.38 327.432 243.38C326.104 243.38 324.896 243.684 323.808 244.292C322.72 244.9 321.864 245.732 321.24 246.788C320.632 247.844 320.328 249.028 320.328 250.34C320.328 251.652 320.632 252.836 321.24 253.892C321.864 254.948 322.72 255.78 323.808 256.388C324.896 256.996 326.104 257.3 327.432 257.3C329.448 257.3 331.104 256.628 332.4 255.284L333.528 256.412C332.792 257.212 331.888 257.828 330.816 258.26C329.76 258.676 328.608 258.884 327.36 258.884ZM351.354 241.94V258.74H349.602V250.988H339.09V258.74H337.314V241.94H339.09V249.428H349.602V241.94H351.354ZM368.718 257.204V258.74H356.838V241.94H368.358V243.476H358.614V249.452H367.302V250.964H358.614V257.204H368.718ZM377.524 258.884C376.276 258.884 375.076 258.684 373.924 258.284C372.788 257.884 371.908 257.356 371.284 256.7L371.98 255.332C372.588 255.94 373.396 256.436 374.404 256.82C375.412 257.188 376.452 257.372 377.524 257.372C379.028 257.372 380.156 257.1 380.908 256.556C381.66 255.996 382.036 255.276 382.036 254.396C382.036 253.724 381.828 253.188 381.412 252.788C381.012 252.388 380.516 252.084 379.924 251.876C379.332 251.652 378.508 251.412 377.452 251.156C376.188 250.836 375.18 250.532 374.428 250.244C373.676 249.94 373.028 249.484 372.484 248.876C371.956 248.268 371.692 247.444 371.692 246.404C371.692 245.556 371.916 244.788 372.364 244.1C372.812 243.396 373.5 242.836 374.428 242.42C375.356 242.004 376.508 241.796 377.884 241.796C378.844 241.796 379.78 241.932 380.692 242.204C381.62 242.46 382.42 242.82 383.092 243.284L382.492 244.7C381.788 244.236 381.036 243.892 380.236 243.668C379.436 243.428 378.652 243.308 377.884 243.308C376.412 243.308 375.3 243.596 374.548 244.172C373.812 244.732 373.444 245.46 373.444 246.356C373.444 247.028 373.644 247.572 374.044 247.988C374.46 248.388 374.972 248.7 375.58 248.924C376.204 249.132 377.036 249.364 378.076 249.62C379.308 249.924 380.3 250.228 381.052 250.532C381.82 250.82 382.468 251.268 382.996 251.876C383.524 252.468 383.788 253.276 383.788 254.3C383.788 255.148 383.556 255.924 383.092 256.628C382.644 257.316 381.948 257.868 381.004 258.284C380.06 258.684 378.9 258.884 377.524 258.884Z" fill="white"/>
</svg>
