<svg width="31" height="31" viewBox="0 0 31 31" fill="none" xmlns="http://www.w3.org/2000/svg">
<path d="M30.6879 7.69334C30.6747 6.52343 30.4601 5.36456 30.0533 4.26758C29.7577 3.46616 29.2862 2.74122 28.6735 2.14607C28.0784 1.53324 27.3534 1.06172 26.552 0.766231C25.4547 0.360556 24.296 0.14593 23.1262 0.131639C21.18 0.0444089 20.5976 0.0246582 15.6714 0.0246582C10.7471 0.0246582 10.1628 0.0426546 8.21751 0.131639C7.0476 0.144811 5.88873 0.359482 4.79175 0.766231C3.99004 1.06125 3.26499 1.53285 2.67024 2.14607C2.05848 2.74234 1.58715 3.46733 1.2904 4.26841C0.884771 5.36573 0.670145 6.52445 0.655808 7.69426C0.568579 9.6404 0.548828 10.2229 0.548828 15.149C0.548828 20.075 0.566825 20.6585 0.656731 22.6029C0.669934 23.7728 0.88462 24.9317 1.29137 26.0287C1.5863 26.8302 2.05791 27.5549 2.67121 28.1492C3.26671 28.7615 3.99154 29.2329 4.79271 29.529C5.88968 29.9359 7.04857 30.1506 8.21847 30.1637C10.1628 30.2536 10.7471 30.2707 15.6714 30.2707C20.5976 30.2707 21.1818 30.2527 23.1262 30.1637C24.2961 30.1506 25.455 29.9359 26.552 29.5291C28.1608 28.9087 29.4325 27.6374 30.0533 26.0287C30.4591 24.9314 30.6738 23.7727 30.6879 22.6029C30.7769 20.6567 30.7949 20.0725 30.7949 15.1482C30.7949 10.222 30.7769 9.63956 30.6879 7.69334ZM26.8408 19.7802C26.8228 20.7124 26.6463 21.6347 26.3189 22.5077C25.7351 24.0172 24.5418 25.2105 23.0323 25.7943C22.1593 26.1213 21.2371 26.2977 20.305 26.3162C19.1068 26.3716 18.7238 26.3842 15.6723 26.3842C12.6209 26.3842 12.2384 26.3706 11.0397 26.3162C10.1076 26.2976 9.1854 26.1212 8.3123 25.7943C6.80275 25.2106 5.60943 24.0173 5.02574 22.5077C4.69877 21.6346 4.5223 20.7124 4.50385 19.7803C4.44847 18.5823 4.4358 18.1992 4.4358 15.1477C4.4358 12.0963 4.44853 11.7132 4.50385 10.5151C4.52231 9.58299 4.69877 8.66077 5.02574 7.7877C5.60934 6.27809 6.80269 5.0847 8.3123 4.50108C9.18536 4.17409 10.1076 3.9976 11.0397 3.97913H11.0401C12.2389 3.92384 12.6226 3.91108 15.6736 3.91108C18.7246 3.91108 19.1076 3.92436 20.3058 3.97913C21.238 3.99737 22.1602 4.17387 23.0333 4.50108C24.5423 5.08519 25.7352 6.27841 26.3189 7.78764C26.6459 8.6607 26.8224 9.58293 26.8408 10.515C26.8952 11.7131 26.908 12.0962 26.908 15.1477C26.908 18.1991 26.8953 18.5813 26.8408 19.7802Z" fill="#1C2A3A"/>
</svg>
