<svg width="25" height="24" viewBox="0 0 25 24" fill="none" xmlns="http://www.w3.org/2000/svg">
<path d="M12.5986 10C14.5316 10 16.0986 8.433 16.0986 6.5C16.0986 4.56701 14.5316 3 12.5986 3C10.6656 3 9.09863 4.56701 9.09863 6.5C9.09863 8.433 10.6656 10 12.5986 10Z" stroke="black" stroke-opacity="0.3" stroke-width="1.8" stroke-linecap="round" stroke-linejoin="round"/>
<path d="M6.60059 3.62793C5.69384 4.2604 5.10059 5.31119 5.10059 6.50059C5.10059 7.77374 5.78039 8.88814 6.79679 9.50059" stroke="black" stroke-opacity="0.3" stroke-width="1.8" stroke-linecap="round" stroke-linejoin="round"/>
<path d="M18.5996 3.62793C19.5064 4.2604 20.0996 5.31119 20.0996 6.50059C20.0996 7.68994 19.5064 8.74079 18.5996 9.37324" stroke="black" stroke-opacity="0.3" stroke-width="1.8" stroke-linecap="round" stroke-linejoin="round"/>
<path d="M6.60059 20V21H18.6006V20C18.6006 18.1363 18.6006 17.2044 18.2961 16.4693C17.8901 15.4891 17.1114 14.7104 16.1313 14.3045C15.3962 14 14.4643 14 12.6006 14C10.7368 14 9.80494 14 9.06984 14.3045C8.08974 14.7104 7.31104 15.4891 6.90509 16.4693C6.60059 17.2044 6.60059 18.1363 6.60059 20Z" stroke="black" stroke-opacity="0.3" stroke-width="1.8" stroke-linecap="round" stroke-linejoin="round"/>
<path d="M22.6001 21.0006V20.4006C22.6001 18.1604 22.6001 17.0403 22.1641 16.1846C21.7806 15.432 21.1687 14.82 20.416 14.4365" stroke="black" stroke-opacity="0.3" stroke-width="1.8" stroke-linecap="round" stroke-linejoin="round"/>
<path d="M2.59863 21.0006V20.4006C2.59863 18.1604 2.59863 17.0403 3.03461 16.1846C3.4181 15.432 4.03002 14.82 4.78267 14.4365" stroke="black" stroke-opacity="0.3" stroke-width="1.8" stroke-linecap="round" stroke-linejoin="round"/>
</svg>
