<svg width="24" height="24" viewBox="0 0 24 24" fill="none" xmlns="http://www.w3.org/2000/svg">
<path d="M15.3923 12.2816C17.2652 12.2816 18.7836 10.7633 18.7836 8.89032C18.7836 7.01737 17.2652 5.49902 15.3923 5.49902C13.7179 5.49902 12.3269 6.71252 12.0508 8.30802" stroke="black" stroke-opacity="0.3" stroke-width="1.8" stroke-linecap="round" stroke-linejoin="round"/>
<path d="M16.5 3.5C17.0523 3.5 17.5 3.05228 17.5 2.5C17.5 1.94771 17.0523 1.5 16.5 1.5C15.9477 1.5 15.5 1.94771 15.5 2.5C15.5 3.05228 15.9477 3.5 16.5 3.5Z" fill="black" fill-opacity="0.3"/>
<path d="M16.6 2.5C16.6 2.55524 16.5552 2.6 16.5 2.6C16.4448 2.6 16.4 2.55524 16.4 2.5C16.4 2.44476 16.4448 2.4 16.5 2.4C16.5552 2.4 16.6 2.44476 16.6 2.5Z" stroke="black" stroke-opacity="0.3" stroke-width="1.8"/>
<path d="M21 6C21.5523 6 22 5.5523 22 5C22 4.44771 21.5523 4 21 4C20.4477 4 20 4.44771 20 5C20 5.5523 20.4477 6 21 6Z" fill="black" fill-opacity="0.3"/>
<path d="M21.1 5C21.1 5.05524 21.0552 5.1 21 5.1C20.9448 5.1 20.9 5.05524 20.9 5C20.9 4.94476 20.9448 4.9 21 4.9C21.0552 4.9 21.1 4.94476 21.1 5Z" stroke="black" stroke-opacity="0.3" stroke-width="1.8"/>
<path d="M22.001 10.5C22.5533 10.5 23.001 10.0523 23.001 9.5C23.001 8.9477 22.5533 8.5 22.001 8.5C21.4487 8.5 21.001 8.9477 21.001 9.5C21.001 10.0523 21.4487 10.5 22.001 10.5Z" fill="black" fill-opacity="0.3"/>
<path d="M22.101 9.5C22.101 9.55524 22.0562 9.6 22.001 9.6C21.9457 9.6 21.901 9.55524 21.901 9.5C21.901 9.44476 21.9457 9.4 22.001 9.4C22.0562 9.4 22.101 9.44476 22.101 9.5Z" stroke="black" stroke-opacity="0.3" stroke-width="1.8"/>
<path d="M11.0029 5C11.5552 5 12.0029 4.55228 12.0029 4C12.0029 3.44771 11.5552 3 11.0029 3C10.4506 3 10.0029 3.44771 10.0029 4C10.0029 4.55228 10.4506 5 11.0029 5Z" fill="black" fill-opacity="0.3"/>
<path d="M11.1029 4C11.1029 4.05524 11.0582 4.1 11.0029 4.1C10.9477 4.1 10.9029 4.05524 10.9029 4C10.9029 3.94476 10.9477 3.9 11.0029 3.9C11.0582 3.9 11.1029 3.94476 11.1029 4Z" stroke="black" stroke-opacity="0.3" stroke-width="1.8"/>
<path d="M4.72728 19.9971C3.07121 18.7305 2 16.7139 2 14.4425C2 10.6083 5.0526 7.5 8.8182 7.5C11.9667 7.5 14.6168 9.6731 15.4008 12.6266C16.0177 12.3079 16.7155 12.1284 17.4546 12.1284C19.965 12.1284 22 14.2006 22 16.7568C22 18.6547 20.8781 20.2858 19.2728 21" stroke="black" stroke-opacity="0.3" stroke-width="1.8" stroke-linecap="round" stroke-linejoin="round"/>
<path d="M11.1233 12.3787C10.5804 11.8358 9.8304 11.5 9.00195 11.5C7.3451 11.5 6.00195 12.8432 6.00195 14.5C6.00195 15.3285 6.33775 16.0785 6.88065 16.6213" stroke="black" stroke-opacity="0.3" stroke-width="1.8" stroke-linecap="round" stroke-linejoin="round"/>
</svg>
