<svg width="99" height="78" viewBox="0 0 99 78" fill="none" xmlns="http://www.w3.org/2000/svg">
<g clip-path="url(#clip0_5385_33893)">
<path d="M20.5546 50.8246C16.0786 46.4058 14.1882 41.7957 15.2314 37.8439C16.5701 32.7726 22.5174 29.2663 31.5484 28.2239L31.5817 28.5148C22.6765 29.5426 16.8199 32.9703 15.5136 37.9188C14.4984 41.7647 16.3614 46.274 20.7594 50.6161L20.5546 50.8246Z" fill="#F0F0F0"/>
<path d="M63.7371 66.51C58.1509 66.51 52.0804 65.6775 46.0507 64.0766C38.5942 62.0969 31.7573 59.1088 26.2793 55.4352L26.4415 55.1919C31.8931 58.8477 38.6997 61.8222 46.1254 63.7936C52.8359 65.5753 59.5967 66.4008 65.6744 66.183L65.685 66.4754C65.0431 66.4986 64.3938 66.5101 63.7371 66.51Z" fill="#F0F0F0"/>
<path d="M76.5521 64.669L76.4586 64.3917C81.4548 62.6976 84.5797 59.9687 85.4955 56.4996C86.6596 52.0896 84.1305 46.972 78.3741 42.0896C72.5883 37.1824 64.245 33.1107 54.8809 30.6246L54.9556 30.3416C64.3606 32.8386 72.7445 36.9314 78.5625 41.8661C84.4099 46.8256 86.9724 52.0491 85.7777 56.5745C84.8357 60.1431 81.6455 62.942 76.5521 64.669Z" fill="#F0F0F0"/>
<path d="M30.6762 66.6324C19.6996 61.7501 11.2412 55.416 6.85938 48.7967L7.10255 48.6348C11.4541 55.2082 19.868 61.5048 30.7945 66.3648L30.6762 66.6324Z" fill="#F0F0F0"/>
<path d="M69.269 75.0905C68.1369 75.0905 66.9853 75.0651 65.8145 75.0144L65.827 74.7219C74.5648 75.1013 82.2744 74.0527 88.1236 71.6887L88.2328 71.9603C83.1303 74.0222 76.6268 75.0905 69.269 75.0905Z" fill="#F0F0F0"/>
<path d="M62.9011 28.4863C61.0869 27.8939 59.2208 27.3423 57.3546 26.8469C46.6158 23.9958 36.0594 22.9835 26.8262 23.92L26.7969 23.6287C36.0644 22.6891 46.657 23.7038 57.4294 26.5638C59.3008 27.0607 61.1721 27.6139 62.9915 28.2079L62.9011 28.4863Z" fill="#F0F0F0"/>
<path d="M13.6913 51.2634C9.21535 46.8445 7.32491 42.2345 8.36809 38.2827C9.70682 33.2114 15.6541 29.705 24.6851 28.6626L24.7185 28.9535C15.8132 29.9813 9.95662 33.409 8.65032 38.3576C7.63508 42.2034 9.49807 46.7128 13.8961 51.0548L13.6913 51.2634Z" fill="#F0F0F0"/>
<path d="M56.8778 66.9492C51.2915 66.9492 45.221 66.1167 39.1913 64.5158C31.7348 62.5362 24.8979 59.548 19.4199 55.8744L19.5821 55.6311C25.0338 59.2869 31.8403 62.2614 39.266 64.2328C45.9765 66.0145 52.7373 66.84 58.815 66.6222L58.8256 66.9147C58.1837 66.9378 57.5344 66.9493 56.8778 66.9492Z" fill="#F0F0F0"/>
<path d="M69.6928 65.1082L69.5993 64.8309C74.5954 63.1368 77.7203 60.4079 78.6361 56.9388C79.8003 52.5288 77.2712 47.4112 71.5147 42.5288C65.7289 37.6216 57.3856 33.5499 48.0215 31.0638L48.0962 30.7808C57.5012 33.2778 65.8851 37.3706 71.7032 42.3053C77.5506 47.2648 80.113 52.4883 78.9184 57.0137C77.9763 60.5823 74.7861 63.3813 69.6928 65.1082Z" fill="#F0F0F0"/>
<path d="M23.8169 67.0716C12.8402 62.1893 4.3818 55.8552 0 49.2359L0.243174 49.074C4.5947 55.6475 13.0087 61.944 23.9352 66.804L23.8169 67.0716Z" fill="#F0F0F0"/>
<path d="M62.4097 75.5297C61.2775 75.5297 60.1259 75.5043 58.9551 75.4536L58.9676 75.1612C67.7054 75.5405 75.415 74.4919 81.2642 72.1279L81.3734 72.3995C76.2709 74.4614 69.7674 75.5297 62.4097 75.5297Z" fill="#F0F0F0"/>
<path d="M56.0398 28.925C54.2256 28.3326 52.3595 27.781 50.4933 27.2856C39.7545 24.4345 29.198 23.4222 19.9649 24.3587L19.9355 24.0674C29.2031 23.1278 39.7957 24.1425 50.568 27.0025C52.4394 27.4994 54.3108 28.0526 56.1302 28.6467L56.0398 28.925Z" fill="#F0F0F0"/>
<path d="M4.97694 43.422C7.07472 41.0632 10.421 39.6256 13.4536 40.4862C10.6559 42.4717 8.64877 45.3856 7.78718 48.7123C7.45954 49.9965 7.22846 51.4591 6.16351 52.2442C5.50088 52.7328 4.62288 52.8495 3.80798 52.7383C2.99305 52.627 2.2225 52.3092 1.46236 51.9942L1.25781 52.012C1.8459 48.9068 2.87915 45.7808 4.97694 43.422Z" fill="#F2F2F2"/>
<path d="M13.4449 40.5521C10.9095 41.1678 8.632 42.5689 6.93586 44.5566C6.56315 44.978 6.259 45.4556 6.0346 45.972C5.83223 46.4821 5.76975 47.0373 5.85366 47.5798C5.92177 48.0872 6.05003 48.5983 5.99395 49.1135C5.96135 49.3768 5.87362 49.6302 5.73651 49.857C5.59941 50.0839 5.41602 50.2792 5.19839 50.43C4.66587 50.82 4.02538 50.9948 3.39311 51.144C2.69109 51.3096 1.9593 51.4704 1.38705 51.9383C1.31771 51.995 1.23405 51.8838 1.30329 51.8272C2.29891 51.0131 3.68261 51.1176 4.78417 50.5264C5.29818 50.2505 5.7324 49.8176 5.83797 49.2235C5.93029 48.7041 5.79848 48.1769 5.72509 47.6637C5.6355 47.1357 5.67619 46.5937 5.84361 46.0851C6.04106 45.5589 6.32636 45.0703 6.68728 44.6401C7.48443 43.6586 8.4305 42.809 9.49083 42.1222C10.6966 41.3317 12.0284 40.7539 13.4285 40.4138C13.5152 40.3928 13.531 40.5313 13.4449 40.5521L13.4449 40.5521Z" fill="white"/>
<path d="M7.44081 43.8843C7.14691 43.5536 6.97979 43.1289 6.96928 42.6861C6.95877 42.2433 7.10556 41.8111 7.38344 41.4668C7.4399 41.3973 7.55021 41.4821 7.49367 41.5516C7.23431 41.8718 7.09761 42.2744 7.10824 42.6867C7.11887 43.099 7.27612 43.494 7.55161 43.8003C7.6114 43.8669 7.50025 43.9505 7.4408 43.8843H7.44081Z" fill="white"/>
<path d="M5.7842 47.3267C6.68512 47.3867 7.57549 47.1039 8.27777 46.5348C8.34731 46.4784 8.43099 46.5896 8.36154 46.646C7.62962 47.2368 6.70245 47.5292 5.76508 47.4646C5.67573 47.4584 5.69534 47.3205 5.7842 47.3267Z" fill="white"/>
<path d="M10.7255 41.5136C10.8127 41.6653 10.936 41.7929 11.0845 41.885C11.2329 41.9771 11.4019 42.0308 11.5762 42.0412C11.6655 42.0462 11.6458 42.1842 11.557 42.1791C11.3646 42.1667 11.178 42.1072 11.0138 42.0059C10.8495 41.9045 10.7125 41.7643 10.6147 41.5976C10.6042 41.5827 10.5997 41.5643 10.6022 41.5461C10.6048 41.528 10.6141 41.5115 10.6282 41.5C10.643 41.489 10.6615 41.4842 10.6797 41.4868C10.6979 41.4893 10.7144 41.4989 10.7255 41.5136Z" fill="white"/>
<path d="M17.7583 50.2783C17.7024 50.2767 17.6465 50.2752 17.5898 50.2745C16.8382 50.2573 16.0865 50.3012 15.342 50.4061C15.2843 50.4132 15.2259 50.4214 15.1685 50.4302C13.3775 50.7019 11.6524 51.3048 10.0808 52.208C9.45579 52.5681 8.85896 52.9752 8.29553 53.4261C7.51744 54.0487 6.72318 54.7859 5.81224 55.105C5.71757 55.1394 5.62088 55.1678 5.5227 55.1902L1.29527 52.261C1.28899 52.2495 1.28201 52.239 1.27568 52.2275L1.10156 52.1182C1.129 52.093 1.158 52.0673 1.18544 52.042C1.2013 52.0273 1.2181 52.0132 1.23395 51.9985C1.24482 51.9889 1.25574 51.9793 1.265 51.97C1.26861 51.9668 1.27226 51.9636 1.2752 51.9613C1.28447 51.952 1.29405 51.9444 1.30264 51.936C1.46436 51.7923 1.62736 51.6495 1.79165 51.5075C1.79232 51.5065 1.79232 51.5065 1.79393 51.5062C3.0485 50.4278 4.40387 49.4449 5.86491 48.6996C5.90888 48.6771 5.95346 48.6537 5.99936 48.6327C6.65979 48.3004 7.34619 48.0228 8.05172 47.8026C8.43843 47.6833 8.83091 47.5837 9.22766 47.5042C10.2532 47.3008 11.3043 47.2604 12.3423 47.3845C14.4117 47.6323 16.3789 48.541 17.6615 50.1541C17.6943 50.1954 17.7261 50.2361 17.7583 50.2783Z" fill="#F2F2F2"/>
<path d="M17.7099 50.3256C15.316 49.2863 12.6563 49.0299 10.1088 49.5928C9.5582 49.7042 9.02858 49.902 8.53941 50.1788C8.07158 50.4639 7.68842 50.8694 7.42972 51.3532C7.17948 51.7995 6.97504 52.285 6.62098 52.6625C6.43689 52.853 6.21471 53.0024 5.96903 53.1008C5.72334 53.1991 5.45969 53.2443 5.19538 53.2333C4.53606 53.2232 3.91971 52.9761 3.32535 52.7134C2.66542 52.4217 1.98457 52.1083 1.24677 52.1363C1.15737 52.1397 1.15734 52.0004 1.2466 51.997C2.53025 51.9482 3.57231 52.8671 4.80681 53.0602C5.38285 53.1502 5.98945 53.0668 6.43038 52.6562C6.81594 52.2972 7.02719 51.7967 7.27668 51.3426C7.52214 50.8669 7.88002 50.4587 8.31905 50.1537C8.79259 49.8528 9.31373 49.6349 9.86016 49.5094C11.0859 49.2071 12.3513 49.0999 13.6102 49.1918C15.0476 49.2887 16.4578 49.6314 17.7799 50.2052C17.8617 50.2408 17.7912 50.3609 17.7099 50.3256Z" fill="white"/>
<path d="M10.9184 49.3634C10.8822 48.9219 11.0037 48.4819 11.2612 48.122C11.5186 47.7621 11.8953 47.5057 12.3239 47.3985C12.4107 47.3772 12.4479 47.5114 12.361 47.5328C11.9617 47.6318 11.6109 47.8707 11.3718 48.2064C11.1327 48.542 11.0212 48.9523 11.0573 49.3632C11.065 49.4525 10.9261 49.4522 10.9184 49.3634Z" fill="white"/>
<path d="M7.52706 51.1103C8.21037 51.7021 9.09102 52.014 9.99341 51.9836C10.0828 51.9806 10.0829 52.1199 9.99358 52.1229C9.05447 52.1528 8.13867 51.8264 7.42896 51.2089C7.36135 51.15 7.45982 51.0517 7.52706 51.1103Z" fill="white"/>
<path d="M14.965 49.4529C14.9435 49.6266 14.9653 49.803 15.0286 49.9661C15.0919 50.1293 15.1945 50.2742 15.3274 50.3877C15.3957 50.4457 15.2972 50.544 15.2293 50.4863C15.0831 50.3602 14.9699 50.2001 14.8996 50.02C14.8293 49.8398 14.8041 49.6452 14.8261 49.453C14.8266 49.4347 14.8341 49.4174 14.847 49.4044C14.8599 49.3915 14.8772 49.3839 14.8954 49.3833C14.9138 49.3834 14.9315 49.3907 14.9445 49.4037C14.9575 49.4168 14.9649 49.4344 14.965 49.4529H14.965Z" fill="white"/>
<path d="M87.1754 62.7582C85.9901 59.8295 83.3203 57.3476 80.1758 57.136C82.1452 59.9489 83.0591 63.3699 82.7556 66.7935C82.6338 68.1134 82.3613 69.5688 83.1012 70.6672C83.5615 71.3507 84.3493 71.7566 85.1541 71.9265C85.9589 72.0963 86.7911 72.0567 87.6126 72.0163L87.7993 72.102C88.2861 68.9793 88.3606 65.6868 87.1754 62.7582Z" fill="#F2F2F2"/>
<path d="M80.1605 57.2011C82.3421 58.6356 84.0175 60.7229 84.9488 63.1666C85.1586 63.6891 85.285 64.2415 85.3233 64.8035C85.3429 65.3521 85.2157 65.896 84.9549 66.3787C84.7207 66.8336 84.4286 67.2718 84.3087 67.7759C84.2512 68.0348 84.2489 68.3031 84.302 68.563C84.3551 68.8229 84.4624 69.0686 84.6168 69.284C84.9876 69.8308 85.5323 70.2113 86.0778 70.5649C86.6835 70.9575 87.3188 71.3556 87.7009 71.9892C87.7472 72.0659 87.8633 71.9894 87.8171 71.9127C87.1522 70.8105 85.814 70.4425 84.9746 69.5144C84.583 69.0813 84.3191 68.5272 84.4188 67.9321C84.5059 67.4117 84.8067 66.9596 85.0478 66.5011C85.3092 66.034 85.4525 65.5098 85.4653 64.9743C85.4557 64.4122 85.3507 63.8558 85.155 63.329C84.7331 62.136 84.1268 61.0169 83.3583 60.0127C82.4876 58.8617 81.427 57.8686 80.2223 57.0764C80.1477 57.0274 80.0864 57.1525 80.1605 57.2011Z" fill="white"/>
<path d="M84.6971 62.3617C85.0847 62.1494 85.3845 61.8057 85.5428 61.3922C85.7011 60.9787 85.7076 60.5222 85.5613 60.1043C85.5314 60.0198 85.3991 60.0624 85.4291 60.147C85.5661 60.5359 85.5599 60.9612 85.4117 61.3459C85.2635 61.7307 84.983 62.0497 84.6209 62.2453C84.5422 62.2879 84.6189 62.4041 84.6971 62.3617Z" fill="white"/>
<path d="M85.1046 66.1634C84.236 65.9163 83.4922 65.3499 83.0215 64.5772C82.9749 64.5006 82.8588 64.5771 82.9053 64.6536C83.3966 65.4568 84.1719 66.0446 85.0764 66.2998C85.1626 66.3241 85.1904 66.1875 85.1046 66.1634Z" fill="white"/>
<path d="M82.3978 59.0225C82.2649 59.136 82.1059 59.2147 81.9353 59.2513C81.7646 59.288 81.5875 59.2816 81.4198 59.2327C81.334 59.2073 81.3063 59.3439 81.3916 59.3691C81.577 59.4223 81.7726 59.4291 81.9613 59.389C82.15 59.3489 82.326 59.263 82.474 59.139C82.4889 59.1285 82.4993 59.1126 82.503 59.0947C82.5067 59.0768 82.5035 59.0581 82.494 59.0425C82.4838 59.0272 82.468 59.0164 82.45 59.0127C82.432 59.0089 82.4132 59.0125 82.3978 59.0225Z" fill="white"/>
<path d="M72.8398 64.9076C72.893 64.925 72.9462 64.9423 72.9997 64.9608C73.7134 65.1979 74.4067 65.4927 75.0728 65.8424C75.1247 65.8686 75.1769 65.8959 75.228 65.9236C76.8238 66.7832 78.2465 67.9324 79.4239 69.3128C79.892 69.8626 80.3176 70.4473 80.6972 71.0618C81.2213 71.9105 81.7223 72.8725 82.4733 73.4801C82.5509 73.5443 82.6325 73.6037 82.7175 73.6579L87.6806 72.3241C87.6904 72.3153 87.7005 72.3078 87.7103 72.299L87.9109 72.2549C87.8936 72.2218 87.8748 72.1879 87.8575 72.1548C87.8475 72.1356 87.8364 72.1167 87.8264 72.0974C87.8194 72.0847 87.8123 72.072 87.8067 72.0601C87.8044 72.0559 87.802 72.0517 87.8 72.0485C87.7944 72.0367 87.7879 72.0262 87.7826 72.0155C87.6785 71.8256 87.5728 71.6361 87.4657 71.447C87.4654 71.4459 87.4654 71.4459 87.464 71.4451C86.6438 70.0065 85.6967 68.6239 84.5704 67.4295C84.5365 67.3936 84.5024 67.3565 84.4662 67.3212C83.9556 66.7856 83.4021 66.2928 82.8114 65.8476C82.4872 65.6049 82.1509 65.3788 81.8039 65.1702C80.9062 64.633 79.9298 64.2406 78.9105 64.0076C76.8786 63.5435 74.7212 63.7362 72.9726 64.8232C72.9279 64.8511 72.8843 64.8786 72.8398 64.9076Z" fill="#F2F2F2"/>
<path d="M72.8678 64.9677C75.4708 64.7958 78.0617 65.4508 80.2724 66.8396C80.7536 67.1301 81.1861 67.4949 81.554 67.9205C81.8991 68.3467 82.1241 68.8578 82.2056 69.4006C82.2917 69.9053 82.3215 70.4315 82.5285 70.9063C82.638 71.1478 82.7972 71.3634 82.9956 71.5389C83.194 71.7143 83.4272 71.8457 83.6798 71.9245C84.3042 72.1372 84.9675 72.1122 85.6153 72.0651C86.3346 72.0128 87.0809 71.9471 87.7664 72.2222C87.8494 72.2556 87.8962 72.1244 87.8132 72.0911C86.6206 71.6125 85.3312 72.1267 84.1038 71.8924C83.5311 71.783 82.9878 71.5 82.7101 70.9647C82.4673 70.4966 82.4361 69.954 82.3533 69.4422C82.2815 68.9115 82.0812 68.4064 81.77 67.9711C81.4248 67.5281 81.007 67.1473 80.5345 66.8448C79.4814 66.147 78.3254 65.6195 77.109 65.2817C75.7228 64.8885 74.2797 64.736 72.8422 64.8308C72.7533 64.8367 72.7794 64.9736 72.8678 64.9677Z" fill="white"/>
<path d="M79.5856 66.3501C79.7676 65.9465 79.8006 65.4912 79.6787 65.0654C79.5569 64.6396 79.2881 64.2712 78.9203 64.0258C78.8458 63.9764 78.7657 64.0903 78.8404 64.1398C79.1833 64.3676 79.4336 64.7109 79.5463 65.1076C79.659 65.5043 79.6265 65.9283 79.4548 66.3031C79.4176 66.3846 79.5486 66.4311 79.5856 66.3501H79.5856Z" fill="white"/>
<path d="M82.1963 69.1388C81.3543 69.4659 80.4204 69.4628 79.5807 69.13C79.4975 69.097 79.4508 69.2282 79.5339 69.2612C80.4083 69.6058 81.3802 69.6071 82.2556 69.2647C82.339 69.2321 82.2792 69.1063 82.1963 69.1388Z" fill="white"/>
<path d="M75.7458 65.0715C75.7078 65.2423 75.6281 65.4011 75.5139 65.5334C75.3996 65.6658 75.2543 65.7676 75.0911 65.8298C75.0074 65.8614 75.0673 65.9871 75.1505 65.9557C75.3305 65.8862 75.4908 65.7736 75.6173 65.6276C75.7439 65.4817 75.8329 65.3068 75.8766 65.1184C75.8822 65.101 75.8809 65.0821 75.8731 65.0656C75.8654 65.049 75.8516 65.0361 75.8346 65.0294C75.8173 65.0232 75.7982 65.0242 75.7816 65.0321C75.7649 65.04 75.7521 65.0541 75.7458 65.0715V65.0715Z" fill="white"/>
<path d="M64.1794 72.7307C64.8243 72.7307 65.3471 72.2064 65.3471 71.5597C65.3471 70.913 64.8243 70.3887 64.1794 70.3887C63.5345 70.3887 63.0117 70.913 63.0117 71.5597C63.0117 72.2064 63.5345 72.7307 64.1794 72.7307Z" fill="#FD6584"/>
<path d="M68.3161 52.7852C68.961 52.7852 69.4838 52.2609 69.4838 51.6141C69.4838 50.9674 68.961 50.4431 68.3161 50.4431C67.6712 50.4431 67.1484 50.9674 67.1484 51.6141C67.1484 52.2609 67.6712 52.7852 68.3161 52.7852Z" fill="#E6E6E6"/>
<path d="M46.5876 20.3032C47.2325 20.3032 47.7553 19.779 47.7553 19.1322C47.7553 18.4855 47.2325 17.9612 46.5876 17.9612C45.9427 17.9612 45.4199 18.4855 45.4199 19.1322C45.4199 19.779 45.9427 20.3032 46.5876 20.3032Z" fill="#E6E6E6"/>
<path d="M22.1192 64.0529C22.1192 64.351 22.1289 64.6491 22.1497 64.9447C22.1718 65.298 22.2097 65.6488 22.261 65.9972C22.4337 67.1703 22.7637 68.3145 23.2421 69.3989C23.2665 69.4529 23.291 69.5069 23.3155 69.5608L23.3522 69.6418C23.3644 69.6688 23.3778 69.6958 23.3901 69.7215C23.4072 69.7571 23.4231 69.7915 23.4402 69.8258C23.461 69.8688 23.4818 69.9117 23.5038 69.9546C23.5063 69.9595 23.5087 69.9657 23.5124 69.9718C23.5307 70.0086 23.5479 70.0442 23.5674 70.081C23.571 70.089 23.5751 70.0968 23.5797 70.1043C23.6005 70.146 23.6225 70.1889 23.6445 70.2306C23.669 70.2748 23.6922 70.3202 23.7167 70.3643C23.7754 70.4735 23.8365 70.5815 23.8989 70.6894C23.9173 70.7213 23.9356 70.7532 23.9552 70.7851C23.9723 70.8146 23.9895 70.844 24.0078 70.8734C24.02 70.8931 24.0323 70.9139 24.0445 70.9335C24.0641 70.9667 24.0836 70.9986 24.1044 71.0317C24.1497 71.1041 24.1962 71.1764 24.2414 71.2488H24.2427C24.2634 71.2819 24.2855 71.3151 24.3075 71.347V71.3482C24.3723 71.4463 24.4396 71.5445 24.5069 71.6414C24.507 71.6414 24.5072 71.6414 24.5073 71.6414C24.5075 71.6415 24.5076 71.6416 24.5077 71.6417C24.5079 71.6418 24.5079 71.642 24.508 71.6421C24.5081 71.6423 24.5081 71.6424 24.5081 71.6426C24.5619 71.7211 24.6182 71.7972 24.6732 71.8732V71.8744C24.7099 71.9223 24.7454 71.9713 24.7821 72.0192C24.8115 72.0584 24.842 72.0989 24.8726 72.1382C24.8787 72.1468 24.8861 72.1541 24.8922 72.1627V72.1639C24.9007 72.175 24.9093 72.1848 24.9179 72.1958C25.0475 72.3627 25.1813 72.5258 25.3191 72.6853L25.3411 72.7111C25.3484 72.7196 25.357 72.7282 25.3643 72.738C25.3766 72.7515 25.3876 72.765 25.3998 72.7785C25.4108 72.792 25.4231 72.8055 25.4353 72.819C26.1537 73.6306 26.9683 74.3511 27.8609 74.9645C27.9796 75.0467 28.1007 75.1265 28.2218 75.2038C28.2524 75.2234 28.2829 75.243 28.3135 75.2614C28.3221 75.2675 28.3319 75.2737 28.3404 75.2798C28.3576 75.2896 28.3735 75.2994 28.3906 75.3105C28.4065 75.3203 28.4224 75.3301 28.4395 75.3399C28.5043 75.3804 28.5704 75.4197 28.6364 75.4589C28.6523 75.4687 28.6695 75.4785 28.6866 75.4884C28.7025 75.4969 28.7196 75.5068 28.7367 75.5166C28.7367 75.5178 28.7368 75.5178 28.738 75.5178H28.7392V75.519H28.7404C28.8224 75.5669 28.9056 75.6135 28.99 75.6589C29.0352 75.6834 29.0817 75.7092 29.1282 75.7325C29.2334 75.7901 29.3398 75.8453 29.4462 75.8981C29.4841 75.9165 29.5233 75.9349 29.5612 75.9545C29.593 75.9692 29.6248 75.9852 29.6566 75.9999C29.6664 76.0048 29.675 76.0085 29.6835 76.0134C29.7104 76.0257 29.7361 76.0379 29.763 76.0502C29.7924 76.0637 29.8217 76.0772 29.8499 76.0907C29.8829 76.1054 29.9147 76.1201 29.9477 76.1336C30.0701 76.1888 30.1936 76.2416 30.3171 76.2919C30.7599 76.4739 31.2124 76.6311 31.6725 76.7629C31.6933 76.7691 31.7153 76.7752 31.7373 76.7813C31.9342 76.8365 32.1324 76.8868 32.3318 76.9322C32.6804 77.0132 33.0323 77.0794 33.3874 77.1309H33.3899C33.4327 77.1371 33.4743 77.1432 33.5171 77.1493C33.5208 77.1493 33.5244 77.1506 33.5293 77.1506C33.5293 77.1518 33.5293 77.1518 33.5305 77.1506C33.577 77.1567 33.6247 77.1628 33.6712 77.169C33.6744 77.1699 33.6777 77.1703 33.681 77.1702C33.725 77.1763 33.7703 77.1812 33.8143 77.1861C33.862 77.191 33.9097 77.196 33.9574 77.2009C33.9941 77.2045 34.0308 77.2082 34.0675 77.2119C34.0707 77.213 34.074 77.2134 34.0773 77.2131C34.1103 77.2156 34.1434 77.2193 34.1764 77.2217H34.1813C34.2094 77.2242 34.2388 77.2266 34.2669 77.2291C34.6082 77.2561 34.9507 77.2683 35.2981 77.2683C35.6736 77.2683 36.0467 77.2536 36.4149 77.2217H36.4186C36.4981 77.2144 36.5763 77.207 36.6546 77.1996C36.6754 77.1972 36.695 77.196 36.7158 77.1935C36.7195 77.1935 36.7244 77.1923 36.728 77.1923C36.7341 77.1911 36.7403 77.191 36.7476 77.1898C36.7509 77.19 36.7542 77.1895 36.7574 77.1886C36.7843 77.1861 36.8112 77.1825 36.8393 77.18L36.9311 77.169C36.9617 77.1653 36.9922 77.1604 37.0228 77.1567C37.0302 77.1555 37.0363 77.1555 37.0436 77.1542C37.0656 77.1518 37.0877 77.1481 37.1097 77.1444C37.1207 77.1432 37.1317 77.142 37.1415 77.1408C37.1635 77.1371 37.1843 77.1346 37.2063 77.1309H37.2075C37.8787 77.034 38.5413 76.8843 39.1891 76.6832C39.2234 76.6722 39.2576 76.6623 39.2919 76.6513C39.2931 76.6513 39.2943 76.6501 39.2956 76.6501C39.3053 76.6464 39.3163 76.6439 39.3261 76.6403C39.4179 76.6108 39.5084 76.5801 39.5989 76.5483C39.7237 76.5065 39.8472 76.4612 39.9708 76.4145C40.0038 76.401 40.0368 76.3888 40.0699 76.3753C40.1371 76.3495 40.2032 76.3225 40.2692 76.2955C40.3818 76.2502 40.4943 76.2023 40.6056 76.1532C40.7096 76.1066 40.8123 76.06 40.9151 76.0109C40.9175 76.0097 40.9212 76.0097 40.9237 76.0073C40.9469 75.9962 40.9701 75.9852 40.9922 75.9741H40.9934C41.5567 75.703 42.1 75.3919 42.619 75.0431C42.7854 74.9314 42.9493 74.8161 43.1108 74.6971C43.2404 74.6002 43.3676 74.5021 43.4949 74.4015C44.1225 73.9008 44.7034 73.3441 45.2306 72.7381V72.7368C45.2685 72.6951 45.304 72.6522 45.3407 72.6092C45.3468 72.6031 45.3517 72.597 45.3566 72.5921C45.3798 72.5639 45.4019 72.5369 45.4251 72.5099V72.5087C45.4557 72.4731 45.4863 72.4363 45.5156 72.3995C45.523 72.3909 45.5291 72.3835 45.5352 72.3762V72.3749C45.5596 72.3455 45.5829 72.3161 45.6074 72.2854C45.6196 72.2707 45.6306 72.256 45.6428 72.2412V72.24C45.715 72.1492 45.7847 72.0585 45.8544 71.9652C45.8728 71.9407 45.8911 71.9149 45.9107 71.8892C45.9988 71.7702 46.0844 71.6487 46.1676 71.5273V71.5261C46.1994 71.4807 46.23 71.434 46.2618 71.3887C46.2924 71.342 46.3229 71.2954 46.3535 71.2488C46.3841 71.1997 46.4159 71.1519 46.4465 71.1028L46.4502 71.0955C46.4807 71.0489 46.5113 70.9998 46.5407 70.952C46.5639 70.9127 46.5872 70.8747 46.6104 70.8366C46.6251 70.8109 46.641 70.7851 46.6556 70.7581C46.6614 70.7498 46.6667 70.7412 46.6716 70.7324C46.7058 70.6723 46.74 70.6122 46.7743 70.552C46.8147 70.4821 46.8538 70.411 46.893 70.3398C46.9076 70.3104 46.9235 70.2809 46.9394 70.2515C46.9456 70.2417 46.9504 70.2319 46.9553 70.2221C46.9737 70.1877 46.992 70.1521 47.0092 70.1166C47.0275 70.0822 47.0459 70.0466 47.0642 70.0111C47.0813 69.9767 47.0997 69.9411 47.1168 69.9056C47.1303 69.8786 47.1425 69.8516 47.1559 69.8246C47.1569 69.8224 47.1581 69.8203 47.1596 69.8185C47.1657 69.805 47.1718 69.7927 47.1767 69.7804C47.1782 69.7786 47.1795 69.7765 47.1804 69.7743C47.1939 69.7473 47.2061 69.7191 47.2196 69.6921C47.2367 69.6565 47.2526 69.6197 47.2697 69.5842C47.2807 69.5596 47.2929 69.5339 47.304 69.5081C47.3199 69.4725 47.337 69.437 47.3517 69.4002C47.3688 69.3633 47.3847 69.3266 47.4006 69.2885C47.4052 69.2794 47.4093 69.2699 47.4128 69.2603C47.4214 69.2431 47.4275 69.226 47.4348 69.2088C47.4544 69.1634 47.474 69.1168 47.4923 69.0714C47.5143 69.0199 47.5351 68.9671 47.5547 68.9156C47.5743 68.8678 47.5926 68.8187 47.611 68.7696L47.6183 68.7524C47.9033 67.9996 48.1195 67.2224 48.2642 66.4303V66.429C48.3458 65.9768 48.4042 65.5207 48.4391 65.0625C48.4403 65.0367 48.4428 65.0122 48.444 64.9876C48.466 64.6773 48.4758 64.3657 48.4758 64.0529C48.4758 63.9143 48.4733 63.7769 48.4697 63.6395C48.3843 60.766 47.3626 57.9998 45.5609 55.7639C45.5217 55.7148 45.4826 55.6658 45.4422 55.6167C45.4018 55.5676 45.3603 55.5198 45.3199 55.472C43.979 53.8971 42.2878 52.6603 40.3828 51.8612C38.4778 51.062 36.4122 50.723 34.3525 50.8714C32.2928 51.0198 30.2968 51.6514 28.5252 52.7154C26.7536 53.7793 25.2561 55.2459 24.1534 56.9968C24.0934 57.0925 24.0335 57.1894 23.976 57.2863C23.9173 57.3844 23.861 57.4826 23.8047 57.5819C22.6966 59.5573 22.116 61.7863 22.1192 64.0529Z" fill="#F2F2F2"/>
<path d="M34.7743 55.4084C36.9414 55.9661 39.162 56.2875 41.3978 56.3671C41.7359 56.3856 42.0748 56.3833 42.4127 56.3602C43.155 56.2976 43.7909 56.0636 44.4991 55.9357C44.8396 55.8744 45.2188 55.8296 45.5616 55.7634C45.4824 55.6648 45.4017 55.5675 45.3197 55.4714C44.5806 55.534 43.83 55.739 43.0821 55.8342C41.8106 55.9964 40.386 55.8154 39.4221 55.3692C38.9545 55.1527 38.5963 54.8824 38.1303 54.6649C38.0669 54.6323 37.9983 54.6112 37.9275 54.6026C37.7932 54.5986 37.6605 54.6331 37.545 54.7021C36.7632 55.098 35.6281 55.4196 34.5745 55.2426C34.496 55.3043 34.6452 55.3745 34.7743 55.4084Z" fill="white"/>
<path d="M30.1129 56.8015C30.1033 56.7998 30.0936 56.7984 30.084 56.7967C30.1245 56.7716 30.1626 56.7428 30.1978 56.7107L30.1129 56.8015Z" fill="white"/>
<path d="M23.8027 57.5824C24.2428 57.6176 24.6851 57.6439 25.1297 57.6611C25.4678 57.6794 25.8067 57.6771 26.1445 57.6542C26.8869 57.5913 27.5228 57.3576 28.231 57.2297C28.88 57.1127 29.6687 57.0564 30.0808 56.7967C29.0158 56.6118 27.9122 56.9881 26.814 57.1282C25.9256 57.2378 25.025 57.1932 24.1517 56.9964C24.0301 57.1882 23.9138 57.3835 23.8027 57.5824Z" fill="white"/>
<path d="M29.1289 75.7325C29.2341 75.7902 29.3405 75.8454 29.4469 75.8981C29.4849 75.9165 29.524 75.9349 29.5619 75.9545C29.5937 75.9693 29.6255 75.9852 29.6573 75.9999C29.6671 76.0048 29.6757 76.0085 29.6842 76.0134C29.7112 76.0257 29.7368 76.038 29.7638 76.0502C29.7931 76.0637 29.8225 76.0772 29.8506 76.0907C29.8836 76.1054 29.9154 76.1202 29.9485 76.1336C30.0708 76.1888 30.1943 76.2416 30.3179 76.2919C30.7606 76.4739 31.2131 76.6312 31.6732 76.763C31.694 76.7691 31.716 76.7752 31.738 76.7814C31.935 76.8366 32.1331 76.8869 32.3325 76.9322C32.6811 77.0132 33.033 77.0795 33.3882 77.131H33.3906C33.4334 77.1371 33.475 77.1432 33.5178 77.1494C33.5215 77.1494 33.5252 77.1506 33.53 77.1506C33.53 77.1518 33.53 77.1518 33.5313 77.1506C33.5777 77.1567 33.6255 77.1629 33.6719 77.169C33.6751 77.1699 33.6784 77.1704 33.6817 77.1702C33.7258 77.1764 33.771 77.1813 33.8151 77.1862C33.8628 77.1911 33.9105 77.196 33.9582 77.2009C33.9949 77.2046 34.0316 77.2083 34.0683 77.2119C34.0714 77.213 34.0747 77.2134 34.078 77.2132C34.1111 77.2156 34.1441 77.2193 34.1771 77.2217H34.182C34.2102 77.2242 34.2395 77.2267 34.2676 77.2291C34.6089 77.2561 34.9514 77.2684 35.2988 77.2684C35.6743 77.2684 36.0474 77.2536 36.4156 77.2217H36.4193C36.4988 77.2144 36.5771 77.207 36.6554 77.1997C36.6762 77.1972 36.6957 77.196 36.7165 77.1935C36.7202 77.1935 36.7251 77.1923 36.7288 77.1923C36.7349 77.1911 36.741 77.1911 36.7483 77.1899C36.7516 77.19 36.7549 77.1896 36.7581 77.1886C36.785 77.1862 36.8119 77.1825 36.8401 77.18L36.9318 77.169C36.9624 77.1653 36.993 77.1604 37.0236 77.1567C37.0309 77.1555 37.037 77.1555 37.0443 77.1543C37.0664 77.1518 37.0884 77.1481 37.1104 77.1445C37.1214 77.1432 37.1324 77.142 37.1422 77.1408C37.1642 77.1371 37.185 77.1347 37.207 77.131H37.2083C37.8795 77.0341 38.5421 76.8844 39.1899 76.6832C39.2241 76.6722 39.2584 76.6624 39.2926 76.6513C39.1347 75.9126 38.8095 75.2202 38.3423 74.6277C37.875 74.0351 37.2782 73.5581 36.5979 73.2337C36.7661 73.0729 36.8825 72.8652 36.9318 72.6375C36.9636 72.4907 36.9661 72.339 36.9392 72.1912C36.9123 72.0435 36.8566 71.9025 36.7752 71.7763C36.6165 71.5319 36.3675 71.3607 36.0829 71.3004L34.2701 70.9201C33.9783 70.863 33.6758 70.9238 33.4284 71.0892C33.181 71.2546 33.0087 71.5112 32.949 71.8033C32.9305 71.8929 32.9223 71.9842 32.9246 72.0757C31.179 73.241 29.9228 74.4493 29.1289 75.7325Z" fill="#0654DF"/>
<path d="M34.4818 70.2019C36.5677 70.2019 38.2586 68.5061 38.2586 66.4143C38.2586 64.3225 36.5677 62.6267 34.4818 62.6267C32.396 62.6267 30.7051 64.3225 30.7051 66.4143C30.7051 68.5061 32.396 70.2019 34.4818 70.2019Z" fill="#FFB8B8"/>
<path d="M32.1266 69.68C31.7239 69.4041 31.3126 68.8739 31.038 68.4766C30.6742 67.9543 30.4238 67.3611 30.3032 66.7356C30.1826 66.11 30.1943 65.466 30.3378 64.8453C30.3835 64.5972 30.4959 64.3662 30.6629 64.1774C30.8407 64.0009 31.1313 63.9171 31.3484 64.042C31.2891 63.8829 31.263 63.7133 31.2717 63.5436C31.2804 63.374 31.3236 63.208 31.3987 63.0557C31.5513 62.7518 31.7724 62.4877 32.0445 62.2844C32.5648 61.8826 33.184 61.6295 33.8362 61.552C34.4884 61.4746 35.1493 61.5757 35.7488 61.8446C35.9847 61.9542 35.5972 61.1075 35.8442 61.1892C36.0895 61.2844 36.3622 61.2796 36.604 61.1758C36.8362 61.0585 37.606 61.7551 37.517 61.5101C37.6932 61.5904 37.8463 61.7141 37.9621 61.8696C38.0778 62.0252 38.1524 62.2076 38.179 62.3999C38.2055 62.5922 38.183 62.7881 38.1137 62.9693C38.0444 63.1506 37.9305 63.3113 37.7826 63.4365C37.5877 63.6015 37.3443 63.6965 37.1309 63.8366C36.757 64.1005 36.4923 64.4924 36.3869 64.9386C36.2814 65.3847 36.3425 65.8542 36.5586 66.2582C36.334 66.1135 36.0876 66.0062 35.829 65.9403C35.6992 65.9085 35.5637 65.9083 35.4338 65.9396C35.3039 65.9709 35.1834 66.0329 35.0822 66.1204C34.9977 66.2174 34.9338 66.3308 34.8945 66.4534C34.8553 66.5761 34.8414 66.7056 34.8538 66.8338C34.8623 67.0909 34.9233 67.3441 34.9301 67.6012C34.9502 68.3555 35.353 69.7896 34.7698 70.1906C34.3096 70.507 32.6765 70.0567 32.1266 69.68Z" fill="#2F2E41"/>
<path d="M37.0774 47.4563C36.9979 47.4561 36.9192 47.4401 36.8458 47.4093C36.7363 47.3652 36.6427 47.2889 36.5771 47.1906C36.5115 47.0922 36.4771 46.9762 36.4784 46.8579V46.2584C36.4783 46.1326 36.4284 46.012 36.3397 45.9231C36.2511 45.8342 36.1309 45.7842 36.0055 45.784C35.8476 45.7838 35.6963 45.7209 35.5847 45.609C35.4731 45.497 35.4103 45.3453 35.4102 45.187V36.9735C35.4103 36.8152 35.4731 36.6635 35.5847 36.5515C35.6963 36.4396 35.8476 36.3767 36.0054 36.3765H63.1396C63.2974 36.3766 63.4487 36.4396 63.5603 36.5515C63.6719 36.6634 63.7347 36.8152 63.7349 36.9735V45.187C63.7347 45.3453 63.6719 45.497 63.5603 45.609C63.4487 45.7209 63.2974 45.7838 63.1396 45.784H39.1822C39.1201 45.7838 39.0585 45.796 39.0011 45.8199C38.9437 45.8437 38.8916 45.8787 38.8478 45.9229L37.4946 47.2799C37.4402 47.3356 37.3753 47.3798 37.3037 47.4101C37.2321 47.4403 37.1552 47.456 37.0774 47.4563Z" fill="white"/>
<path d="M37.0787 47.5793C36.983 47.5792 36.8884 47.56 36.8002 47.523C36.6682 47.4698 36.5553 47.3779 36.4763 47.2592C36.3973 47.1406 36.3558 47.0009 36.3573 46.8582V46.2588C36.3572 46.1655 36.3202 46.0761 36.2545 46.0102C36.1888 45.9443 36.0997 45.9072 36.0067 45.907C35.8164 45.9068 35.634 45.8309 35.4995 45.696C35.3649 45.5611 35.2893 45.3781 35.2891 45.1873V36.9738C35.2893 36.783 35.3649 36.6001 35.4995 36.4652C35.634 36.3303 35.8164 36.2544 36.0066 36.2542H63.1408C63.3311 36.2544 63.5135 36.3303 63.648 36.4652C63.7826 36.6001 63.8582 36.783 63.8584 36.9738V45.1873C63.8582 45.3781 63.7826 45.5611 63.648 45.696C63.5135 45.8309 63.3311 45.9068 63.1408 45.907H39.1835C39.1374 45.9069 39.0917 45.916 39.0492 45.9336C39.0066 45.9513 38.968 45.9773 38.9355 46.0101L37.5824 47.367C37.5166 47.4341 37.4382 47.4873 37.3517 47.5238C37.2653 47.5602 37.1725 47.5791 37.0787 47.5793ZM36.0066 36.4995C35.8812 36.4996 35.761 36.5497 35.6724 36.6386C35.5837 36.7275 35.5338 36.8481 35.5337 36.9738V45.1873C35.5338 45.3131 35.5837 45.4337 35.6724 45.5226C35.761 45.6115 35.8813 45.6616 36.0067 45.6617C36.1645 45.6619 36.3158 45.7249 36.4274 45.8368C36.539 45.9487 36.6018 46.1005 36.6019 46.2588V46.8582C36.602 46.952 36.6297 47.0437 36.6817 47.1217C36.7337 47.1997 36.8075 47.2605 36.8939 47.2964C36.9804 47.3323 37.0754 47.3416 37.1672 47.3233C37.2589 47.305 37.3432 47.2599 37.4093 47.1936L38.7625 45.8366C38.8176 45.781 38.8832 45.7369 38.9555 45.7069C39.0278 45.6768 39.1052 45.6615 39.1835 45.6617H63.1408C63.2662 45.6616 63.3865 45.6115 63.4751 45.5226C63.5638 45.4337 63.6137 45.3131 63.6138 45.1873V36.9738C63.6137 36.8481 63.5638 36.7275 63.4751 36.6386C63.3864 36.5496 63.2662 36.4996 63.1408 36.4995L36.0066 36.4995Z" fill="#3F3D56"/>
<path d="M60.8062 40.0951H38.8032C38.7192 40.0951 38.6386 40.0616 38.5791 40.002C38.5197 39.9424 38.4863 39.8616 38.4863 39.7773C38.4863 39.693 38.5197 39.6122 38.5791 39.5526C38.6386 39.493 38.7192 39.4595 38.8032 39.4595H60.8062C60.8903 39.4595 60.9709 39.493 61.0303 39.5526C61.0898 39.6122 61.1232 39.693 61.1232 39.7773C61.1232 39.8616 61.0898 39.9424 61.0303 40.002C60.9709 40.0616 60.8903 40.0951 60.8062 40.0951Z" fill="#0654DF"/>
<path d="M60.7658 41.4455H38.8032C38.7192 41.4455 38.6386 41.412 38.5791 41.3524C38.5197 41.2928 38.4863 41.2119 38.4863 41.1276C38.4863 41.0433 38.5197 40.9625 38.5791 40.9029C38.6386 40.8433 38.7192 40.8098 38.8032 40.8098H60.7658C60.8499 40.8098 60.9305 40.8433 60.9899 40.9029C61.0493 40.9625 61.0827 41.0433 61.0827 41.1276C61.0827 41.2119 61.0493 41.2928 60.9899 41.3524C60.9305 41.412 60.8499 41.4455 60.7658 41.4455Z" fill="#E6E6E6"/>
<path d="M60.744 42.7958H38.8032C38.7192 42.7958 38.6386 42.7623 38.5791 42.7027C38.5197 42.6431 38.4863 42.5623 38.4863 42.478C38.4863 42.3937 38.5197 42.3128 38.5791 42.2532C38.6386 42.1936 38.7192 42.1602 38.8032 42.1602H60.744C60.828 42.1602 60.9086 42.1936 60.9681 42.2532C61.0275 42.3128 61.0609 42.3937 61.0609 42.478C61.0609 42.5623 61.0275 42.6431 60.9681 42.7027C60.9086 42.7623 60.828 42.7958 60.744 42.7958Z" fill="#E6E6E6"/>
<path d="M95.4582 35.1022C95.4582 35.4003 95.4484 35.6984 95.4276 35.994C95.4056 36.3473 95.3677 36.6982 95.3163 37.0465C95.1437 38.2196 94.8137 39.3639 94.3353 40.4482C94.3108 40.5022 94.2864 40.5562 94.2619 40.6102L94.2252 40.6911C94.213 40.7181 94.1995 40.7451 94.1873 40.7709C94.1702 40.8065 94.1543 40.8408 94.1371 40.8751C94.1163 40.9181 94.0956 40.961 94.0735 41.004C94.0711 41.0089 94.0686 41.015 94.065 41.0211C94.0466 41.0579 94.0295 41.0935 94.0099 41.1303C94.0063 41.1383 94.0022 41.1461 93.9977 41.1536C93.9769 41.1953 93.9549 41.2383 93.9329 41.28C93.9084 41.3241 93.8852 41.3695 93.8607 41.4137C93.802 41.5229 93.7408 41.6308 93.6784 41.7388C93.6601 41.7707 93.6417 41.8026 93.6222 41.8344C93.605 41.8639 93.5879 41.8933 93.5696 41.9228C93.5573 41.9424 93.5451 41.9633 93.5329 41.9829C93.5133 42.016 93.4937 42.0479 93.4729 42.081C93.4277 42.1534 93.3812 42.2258 93.3359 42.2981H93.3347C93.3139 42.3313 93.2919 42.3644 93.2699 42.3963V42.3975C93.205 42.4956 93.1378 42.5938 93.0705 42.6907C93.0703 42.6907 93.0702 42.6907 93.07 42.6908C93.0699 42.6908 93.0697 42.6909 93.0696 42.691C93.0695 42.6912 93.0694 42.6913 93.0694 42.6914C93.0693 42.6916 93.0693 42.6918 93.0693 42.6919C93.0154 42.7704 92.9592 42.8465 92.9041 42.9225V42.9238C92.8674 42.9716 92.832 43.0207 92.7953 43.0685C92.7659 43.1078 92.7353 43.1483 92.7048 43.1875C92.6986 43.1961 92.6913 43.2035 92.6852 43.212V43.2133C92.6766 43.2243 92.668 43.2341 92.6595 43.2452C92.5298 43.412 92.3961 43.5752 92.2583 43.7346L92.2363 43.7604C92.2289 43.769 92.2204 43.7776 92.213 43.7874C92.2008 43.8009 92.1898 43.8144 92.1775 43.8279C92.1665 43.8414 92.1543 43.8549 92.1421 43.8683C91.4237 44.6799 90.6091 45.4004 89.7164 46.0139C89.5978 46.0961 89.4767 46.1758 89.3556 46.2531C89.325 46.2727 89.2944 46.2923 89.2638 46.3107C89.2553 46.3169 89.2455 46.323 89.2369 46.3292C89.2198 46.339 89.2039 46.3488 89.1868 46.3598C89.1709 46.3696 89.155 46.3794 89.1378 46.3893C89.073 46.4297 89.007 46.469 88.9409 46.5082C88.925 46.5181 88.9079 46.5279 88.8908 46.5377C88.8749 46.5463 88.8577 46.5561 88.8406 46.5659C88.8406 46.5671 88.8406 46.5671 88.8394 46.5671H88.8382V46.5684H88.8369C88.755 46.6162 88.6718 46.6628 88.5874 46.7082C88.5421 46.7327 88.4957 46.7585 88.4492 46.7818C88.344 46.8395 88.2376 46.8947 88.1311 46.9474C88.0932 46.9658 88.0541 46.9842 88.0162 47.0039C87.9844 47.0186 87.9526 47.0345 87.9207 47.0492C87.911 47.0541 87.9024 47.0578 87.8938 47.0627C87.8669 47.075 87.8412 47.0873 87.8143 47.0995C87.785 47.113 87.7556 47.1265 87.7275 47.14C87.6945 47.1547 87.6626 47.1695 87.6296 47.183C87.5073 47.2382 87.3838 47.2909 87.2602 47.3412C86.8175 47.5232 86.365 47.6805 85.9049 47.8123C85.8841 47.8184 85.8621 47.8245 85.8401 47.8307C85.6431 47.8859 85.445 47.9362 85.2456 47.9815C84.897 48.0625 84.5451 48.1288 84.1899 48.1803H84.1875C84.1447 48.1864 84.1031 48.1925 84.0603 48.1987C84.0566 48.1987 84.0529 48.1999 84.048 48.1999C84.048 48.2011 84.048 48.2011 84.0468 48.1999C84.0003 48.206 83.9526 48.2122 83.9062 48.2183C83.903 48.2192 83.8997 48.2197 83.8964 48.2195C83.8523 48.2257 83.8071 48.2306 83.763 48.2355C83.7153 48.2404 83.6676 48.2453 83.6199 48.2502C83.5832 48.2539 83.5465 48.2576 83.5098 48.2612C83.5067 48.2623 83.5034 48.2628 83.5 48.2625C83.467 48.2649 83.434 48.2686 83.401 48.2711H83.3961C83.3679 48.2735 83.3386 48.276 83.3104 48.2784C82.9692 48.3054 82.6267 48.3177 82.2793 48.3177C81.9037 48.3177 81.5307 48.303 81.1625 48.2711H81.1588C81.0793 48.2637 81.001 48.2563 80.9227 48.249C80.9019 48.2465 80.8824 48.2453 80.8616 48.2428C80.8579 48.2428 80.853 48.2416 80.8493 48.2416C80.8432 48.2404 80.8371 48.2404 80.8298 48.2392C80.8265 48.2393 80.8231 48.2389 80.82 48.2379C80.7931 48.2355 80.7662 48.2318 80.738 48.2293L80.6463 48.2183C80.6157 48.2146 80.5851 48.2097 80.5545 48.206C80.5472 48.2048 80.5411 48.2048 80.5337 48.2036C80.5117 48.2011 80.4897 48.1975 80.4677 48.1938C80.4567 48.1926 80.4457 48.1913 80.4359 48.1901C80.4139 48.1864 80.3931 48.184 80.3711 48.1803H80.3698C79.6986 48.0834 79.036 47.9337 78.3882 47.7325C78.354 47.7215 78.3197 47.7117 78.2855 47.7006C78.2842 47.7006 78.283 47.6994 78.2818 47.6994C78.272 47.6957 78.261 47.6933 78.2512 47.6896C78.1595 47.6602 78.069 47.6295 77.9784 47.5976C77.8537 47.5559 77.7301 47.5105 77.6066 47.4639C77.5736 47.4504 77.5405 47.4381 77.5075 47.4246C77.4402 47.3989 77.3742 47.3719 77.3081 47.3449C77.1956 47.2995 77.0831 47.2517 76.9717 47.2026C76.8678 47.156 76.765 47.1094 76.6623 47.0603C76.6598 47.0591 76.6561 47.0591 76.6537 47.0566C76.6305 47.0456 76.6072 47.0345 76.5852 47.0235H76.584C76.0207 46.7524 75.4774 46.4412 74.9583 46.0924C74.792 45.9808 74.6281 45.8655 74.4666 45.7465C74.3369 45.6496 74.2097 45.5514 74.0825 45.4508C73.4549 44.9502 72.8739 44.3934 72.3468 43.7874V43.7862C72.3088 43.7445 72.2734 43.7015 72.2367 43.6586C72.2306 43.6524 72.2257 43.6463 72.2208 43.6414C72.1975 43.6132 72.1755 43.5862 72.1523 43.5592V43.558C72.1217 43.5224 72.0911 43.4856 72.0617 43.4488C72.0544 43.4402 72.0483 43.4329 72.0422 43.4255V43.4243C72.0177 43.3948 71.9945 43.3654 71.97 43.3347C71.9578 43.32 71.9468 43.3053 71.9345 43.2906V43.2893C71.8624 43.1986 71.7926 43.1078 71.7229 43.0146C71.7046 42.99 71.6862 42.9643 71.6667 42.9385C71.5786 42.8195 71.4929 42.6981 71.4098 42.5766V42.5754C71.378 42.53 71.3474 42.4834 71.3156 42.438C71.285 42.3914 71.2544 42.3448 71.2238 42.2982C71.1933 42.2491 71.1615 42.2012 71.1309 42.1522L71.1272 42.1448C71.0966 42.0982 71.066 42.0491 71.0367 42.0013C71.0135 41.962 70.9902 41.924 70.967 41.886C70.9523 41.8602 70.9364 41.8344 70.9217 41.8075C70.916 41.7992 70.9107 41.7906 70.9058 41.7817C70.8716 41.7216 70.8373 41.6615 70.8031 41.6014C70.7627 41.5315 70.7235 41.4603 70.6844 41.3892C70.6697 41.3597 70.6538 41.3303 70.6379 41.3008C70.6318 41.291 70.6269 41.2812 70.622 41.2714C70.6037 41.237 70.5853 41.2015 70.5682 41.1659C70.5498 41.1315 70.5315 41.096 70.5132 41.0604C70.496 41.026 70.4777 40.9905 70.4606 40.9549C70.4471 40.9279 70.4349 40.9009 70.4214 40.8739C70.4205 40.8717 70.4192 40.8697 70.4177 40.8678C70.4116 40.8543 70.4055 40.842 70.4006 40.8298C70.3991 40.8279 70.3979 40.8258 70.397 40.8236C70.3835 40.7966 70.3713 40.7684 70.3578 40.7414C70.3407 40.7059 70.3248 40.6691 70.3077 40.6335C70.2966 40.609 70.2844 40.5832 70.2734 40.5574C70.2575 40.5219 70.2404 40.4863 70.2257 40.4495C70.2086 40.4127 70.1927 40.3759 70.1768 40.3379C70.1722 40.3287 70.1681 40.3193 70.1645 40.3096C70.156 40.2925 70.1499 40.2753 70.1425 40.2581C70.1229 40.2127 70.1034 40.1661 70.085 40.1207C70.063 40.0692 70.0422 40.0164 70.0226 39.9649C70.0031 39.9171 69.9847 39.868 69.9664 39.8189L69.959 39.8018C69.674 39.0489 69.4579 38.2717 69.3132 37.4796V37.4784C69.2316 37.0261 69.1732 36.57 69.1383 36.1118C69.137 36.086 69.1346 36.0615 69.1334 36.037C69.1113 35.7266 69.1016 35.415 69.1016 35.1022C69.1016 34.9636 69.104 34.8262 69.1077 34.6888C69.1931 31.8154 70.2148 29.0491 72.0165 26.8132C72.0556 26.7642 72.0948 26.7151 72.1351 26.666C72.1755 26.617 72.2171 26.5691 72.2575 26.5213C73.5984 24.9464 75.2895 23.7096 77.1946 22.9105C79.0996 22.1114 81.1652 21.7723 83.2249 21.9207C85.2845 22.0691 87.2806 22.7007 89.0522 23.7647C90.8238 24.8287 92.3213 26.2952 93.424 28.0461C93.4839 28.1418 93.5439 28.2387 93.6014 28.3356C93.6601 28.4337 93.7163 28.5319 93.7726 28.6312C94.8808 30.6067 95.4614 32.8356 95.4582 35.1022Z" fill="#F2F2F2"/>
<path d="M82.8009 26.4577C80.6339 27.0154 78.4132 27.3368 76.1774 27.4164C75.8393 27.4349 75.5004 27.4326 75.1626 27.4095C74.4202 27.3469 73.7843 27.1129 73.0761 26.985C72.7357 26.9237 72.3564 26.8789 72.0137 26.8127C72.0929 26.7141 72.1735 26.6168 72.2555 26.5207C72.9946 26.5833 73.7452 26.7883 74.4932 26.8835C75.7646 27.0457 77.1892 26.8647 78.1531 26.4185C78.6207 26.202 78.9789 25.9317 79.4449 25.7142C79.5083 25.6816 79.577 25.6605 79.6477 25.6519C79.7821 25.6479 79.9148 25.6824 80.0302 25.7515C80.812 26.1473 81.9471 26.4689 83.0007 26.292C83.0792 26.3536 82.93 26.4238 82.8009 26.4577Z" fill="white"/>
<path d="M87.4639 27.8508C87.4735 27.8491 87.4831 27.8477 87.4928 27.846C87.4523 27.8209 87.4142 27.7921 87.3789 27.76L87.4639 27.8508Z" fill="white"/>
<path d="M93.7742 28.6317C93.3342 28.6669 92.8918 28.6932 92.4472 28.7104C92.1091 28.7287 91.7702 28.7264 91.4324 28.7035C90.69 28.6406 90.0541 28.4069 89.3459 28.279C88.6969 28.162 87.9082 28.1057 87.4961 27.846C88.5612 27.6611 89.6647 28.0374 90.763 28.1775C91.6514 28.2871 92.5519 28.2425 93.4252 28.0457C93.5468 28.2375 93.6631 28.4328 93.7742 28.6317Z" fill="white"/>
<path d="M80.7921 40.8849C82.9781 40.8849 84.7503 39.0681 84.7503 36.827C84.7503 34.5859 82.9781 32.769 80.7921 32.769C78.6061 32.769 76.834 34.5859 76.834 36.827C76.834 39.0681 78.6061 40.8849 80.7921 40.8849Z" fill="#FFB6B6"/>
<path d="M88.4489 46.7818C88.3437 46.8395 88.2373 46.8947 88.1308 46.9474C88.0929 46.9658 88.0538 46.9842 88.0159 47.0039C87.984 47.0186 87.9522 47.0345 87.9204 47.0493C87.9107 47.0542 87.9021 47.0578 87.8935 47.0627C87.8666 47.075 87.8409 47.0873 87.814 47.0996C87.7847 47.1131 87.7553 47.1265 87.7272 47.14C87.6941 47.1548 87.6623 47.1695 87.6293 47.183C87.507 47.2382 87.3834 47.2909 87.2599 47.3412C86.8172 47.5232 86.3647 47.6805 85.9046 47.8123C85.8838 47.8184 85.8618 47.8245 85.8398 47.8307C85.6428 47.8859 85.4446 47.9362 85.2453 47.9816C84.8966 48.0625 84.5448 48.1288 84.1896 48.1803H84.1872C84.1444 48.1864 84.1028 48.1926 84.06 48.1987C84.0563 48.1987 84.0526 48.1999 84.0477 48.1999C84.0477 48.2011 84.0477 48.2011 84.0465 48.1999C84 48.2061 83.9523 48.2122 83.9058 48.2183C83.9027 48.2193 83.8994 48.2197 83.896 48.2196C83.852 48.2257 83.8068 48.2306 83.7627 48.2355C83.715 48.2404 83.6673 48.2453 83.6196 48.2502C83.5829 48.2539 83.5462 48.2576 83.5095 48.2613C83.5064 48.2623 83.503 48.2628 83.4997 48.2625C83.4667 48.2649 83.4337 48.2686 83.4006 48.2711H83.3958C83.3676 48.2735 83.3383 48.276 83.3101 48.2784C82.9689 48.3054 82.6264 48.3177 82.279 48.3177C81.9034 48.3177 81.5304 48.303 81.1622 48.2711H81.1585C81.079 48.2637 81.0007 48.2564 80.9224 48.249C80.9016 48.2465 80.882 48.2453 80.8613 48.2429C80.8576 48.2429 80.8527 48.2416 80.849 48.2416C80.8429 48.2404 80.8368 48.2404 80.8294 48.2392C80.8261 48.2393 80.8228 48.2389 80.8197 48.2379C80.7927 48.2355 80.7658 48.2318 80.7377 48.2294L80.646 48.2183C80.6154 48.2146 80.5848 48.2097 80.5542 48.2061C80.5469 48.2048 80.5408 48.2048 80.5334 48.2036C80.5114 48.2012 80.4894 48.1975 80.4674 48.1938C80.4564 48.1926 80.4454 48.1913 80.4356 48.1901C80.4136 48.1864 80.3928 48.184 80.3707 48.1803H80.3695C79.6983 48.0834 79.0357 47.9337 78.3879 47.7325C78.3537 47.7215 78.3194 47.7117 78.2852 47.7007C78.4431 46.962 78.7683 46.2696 79.2355 45.677C79.7028 45.0844 80.2996 44.6074 80.9799 44.283C80.8116 44.1222 80.6953 43.9146 80.646 43.6868C80.6142 43.54 80.6117 43.3883 80.6386 43.2406C80.6654 43.0928 80.7212 42.9518 80.8025 42.8257C80.9613 42.5812 81.2103 42.41 81.4949 42.3497L83.3077 41.9694C83.5995 41.9123 83.902 41.9731 84.1494 42.1385C84.3968 42.3039 84.569 42.5605 84.6288 42.8526C84.6473 42.9422 84.6555 43.0336 84.6532 43.125C86.3988 44.2904 87.655 45.4987 88.4489 46.7818Z" fill="#0654DF"/>
<path d="M91.3858 35.0673C90.713 34.2804 90.3932 33.2365 89.8553 32.343C89.3175 31.4495 88.3815 30.6498 87.3927 30.8577C86.7111 31.0011 86.1843 31.6043 85.9176 32.2768C85.651 32.9493 85.601 33.6909 85.5542 34.4174C85.5708 32.9243 84.5899 31.4769 83.2387 31.0005C81.8877 30.5241 80.2707 31.0555 79.4217 32.255C79.0512 31.9106 78.5676 31.7145 78.0625 31.7039C77.5575 31.6933 77.0661 31.8688 76.6815 32.1973C75.9221 32.878 75.754 34.1736 76.3125 35.0418C76.871 35.91 78.0805 36.2334 78.9681 35.7519L79.2818 36.0414C79.1052 36.6609 79.4477 37.3927 80.0235 37.6259C80.4904 37.815 81.1495 37.7835 81.3242 38.2749C81.4463 38.6182 81.2181 38.9847 80.9754 39.2485C80.7327 39.5123 80.4445 39.7848 80.4153 40.1499C80.3713 40.7007 80.9389 41.0866 81.4549 41.2028C82.6991 41.4831 84.0796 40.9052 84.7967 39.8041C84.8105 39.7829 84.8255 39.7616 84.8418 39.7403C85.2441 39.2243 85.5373 38.6315 85.7035 37.998C85.8696 37.3646 85.9053 36.7038 85.8082 36.056C85.7678 35.8015 85.8085 35.6122 85.9835 35.5519C86.7397 35.2914 88.8586 35.8382 89.4998 36.3324C90.1411 36.8265 90.6546 37.4805 91.2722 38.0066C91.8899 38.5327 92.677 38.9384 93.4613 38.7952C94.0894 38.6804 94.6238 38.2231 94.9832 37.6715C95.3426 37.1199 95.5495 36.4769 95.7347 35.8379C94.3458 36.6426 92.4448 36.3057 91.3858 35.0673Z" fill="#2F2E41"/>
<path d="M10.1309 26.883C10.1309 27.181 10.1407 27.4791 10.1615 27.7748C10.1835 28.1281 10.2214 28.4789 10.2728 28.8273C10.4454 30.0004 10.7754 31.1446 11.2538 32.229C11.2782 32.283 11.3027 32.337 11.3272 32.3909L11.3639 32.4719C11.3761 32.4989 11.3896 32.5259 11.4018 32.5516C11.4189 32.5872 11.4348 32.6216 11.4519 32.6559C11.4727 32.6989 11.4935 32.7418 11.5156 32.7847C11.518 32.7896 11.5204 32.7958 11.5241 32.8019C11.5425 32.8387 11.5596 32.8743 11.5792 32.9111C11.5828 32.9191 11.5868 32.9269 11.5914 32.9344C11.6122 32.9761 11.6342 33.019 11.6562 33.0607C11.6807 33.1049 11.7039 33.1503 11.7284 33.1944C11.7871 33.3036 11.8483 33.4116 11.9107 33.5195C11.929 33.5514 11.9473 33.5833 11.9669 33.6152C11.984 33.6447 12.0012 33.6741 12.0195 33.7035C12.0318 33.7232 12.044 33.744 12.0562 33.7636C12.0758 33.7968 12.0954 33.8287 12.1162 33.8618C12.1614 33.9342 12.2079 34.0065 12.2531 34.0789H12.2544C12.2752 34.112 12.2972 34.1452 12.3192 34.1771V34.1783C12.384 34.2764 12.4513 34.3746 12.5186 34.4715C12.5188 34.4715 12.5189 34.4715 12.5191 34.4715C12.5192 34.4716 12.5193 34.4717 12.5195 34.4718C12.5196 34.4719 12.5197 34.4721 12.5197 34.4722C12.5198 34.4724 12.5198 34.4725 12.5198 34.4727C12.5736 34.5512 12.6299 34.6273 12.6849 34.7033V34.7045C12.7216 34.7524 12.7571 34.8014 12.7938 34.8493C12.8232 34.8885 12.8537 34.929 12.8843 34.9683C12.8904 34.9769 12.8978 34.9842 12.9039 34.9928V34.994C12.9125 35.0051 12.921 35.0149 12.9296 35.0259C13.0592 35.1928 13.193 35.3559 13.3308 35.5154L13.3528 35.5412C13.3602 35.5498 13.3687 35.5583 13.3761 35.5682C13.3883 35.5817 13.3993 35.5951 13.4115 35.6086C13.4225 35.6221 13.4348 35.6356 13.447 35.6491C14.1654 36.4607 14.98 37.1812 15.8727 37.7947C15.9913 37.8768 16.1124 37.9566 16.2335 38.0339C16.2641 38.0535 16.2947 38.0731 16.3252 38.0915C16.3338 38.0977 16.3436 38.1038 16.3521 38.1099C16.3693 38.1197 16.3852 38.1295 16.4023 38.1406C16.4182 38.1504 16.4341 38.1602 16.4512 38.17C16.5161 38.2105 16.5821 38.2498 16.6482 38.289C16.6641 38.2988 16.6812 38.3086 16.6983 38.3185C16.7142 38.327 16.7313 38.3369 16.7485 38.3467C16.7485 38.3479 16.7485 38.3479 16.7497 38.3479H16.7509V38.3491H16.7521C16.8341 38.397 16.9173 38.4436 17.0017 38.489C17.0469 38.5135 17.0934 38.5393 17.1399 38.5626C17.2451 38.6202 17.3515 38.6754 17.4579 38.7282C17.4959 38.7466 17.535 38.765 17.5729 38.7846C17.6047 38.7993 17.6365 38.8153 17.6683 38.83C17.6781 38.8349 17.6867 38.8386 17.6952 38.8435C17.7222 38.8558 17.7478 38.868 17.7747 38.8803C17.8041 38.8938 17.8335 38.9073 17.8616 38.9208C17.8946 38.9355 17.9264 38.9502 17.9595 38.9637C18.0818 39.0189 18.2053 39.0717 18.3289 39.122C18.7716 39.304 19.2241 39.4612 19.6842 39.593C19.705 39.5992 19.727 39.6053 19.749 39.6114C19.946 39.6666 20.1441 39.7169 20.3435 39.7623C20.6921 39.8433 21.044 39.9095 21.3991 39.961H21.4016C21.4444 39.9672 21.486 39.9733 21.5288 39.9794C21.5325 39.9794 21.5361 39.9807 21.541 39.9807C21.541 39.9819 21.541 39.9819 21.5423 39.9807C21.5887 39.9868 21.6364 39.9929 21.6829 39.9991C21.6861 40 21.6894 40.0004 21.6927 40.0003C21.7368 40.0064 21.782 40.0113 21.826 40.0163C21.8737 40.0212 21.9215 40.0261 21.9692 40.031C22.0059 40.0347 22.0426 40.0383 22.0793 40.042C22.0824 40.0431 22.0857 40.0435 22.089 40.0432C22.1221 40.0457 22.1551 40.0494 22.1881 40.0518H22.193C22.2211 40.0543 22.2505 40.0567 22.2786 40.0592C22.6199 40.0862 22.9624 40.0984 23.3098 40.0984C23.6853 40.0984 24.0584 40.0837 24.4266 40.0518H24.4303C24.5098 40.0445 24.5881 40.0371 24.6664 40.0297C24.6872 40.0273 24.7067 40.0261 24.7275 40.0236C24.7312 40.0236 24.7361 40.0224 24.7398 40.0224C24.7459 40.0212 24.752 40.0212 24.7593 40.0199C24.7626 40.0201 24.7659 40.0196 24.7691 40.0187C24.796 40.0162 24.8229 40.0126 24.8511 40.0101L24.9428 39.9991C24.9734 39.9954 25.004 39.9905 25.0345 39.9868C25.0419 39.9856 25.048 39.9856 25.0553 39.9844C25.0774 39.9819 25.0994 39.9782 25.1214 39.9745C25.1324 39.9733 25.1434 39.9721 25.1532 39.9709C25.1752 39.9672 25.196 39.9647 25.218 39.9611H25.2192C25.8905 39.8641 26.5531 39.7144 27.2009 39.5133C27.2351 39.5023 27.2694 39.4924 27.3036 39.4814C27.3048 39.4814 27.3061 39.4802 27.3073 39.4802C27.3171 39.4765 27.3281 39.474 27.3379 39.4704C27.4296 39.4409 27.5201 39.4103 27.6106 39.3784C27.7354 39.3367 27.8589 39.2913 27.9825 39.2446C28.0155 39.2312 28.0485 39.2189 28.0816 39.2054C28.1489 39.1796 28.2149 39.1526 28.281 39.1257C28.3935 39.0803 28.506 39.0324 28.6173 38.9834C28.7213 38.9367 28.8241 38.8901 28.9268 38.8411C28.9293 38.8398 28.9329 38.8398 28.9354 38.8374C28.9586 38.8263 28.9819 38.8153 29.0039 38.8043H29.0051C29.5684 38.5331 30.1117 38.222 30.6308 37.8732C30.7971 37.7615 30.961 37.6462 31.1225 37.5272C31.2522 37.4303 31.3794 37.3322 31.5066 37.2316C32.1342 36.731 32.7151 36.1742 33.2423 35.5682V35.5669C33.2802 35.5252 33.3157 35.4823 33.3524 35.4394C33.3585 35.4332 33.3634 35.4271 33.3683 35.4222C33.3916 35.394 33.4136 35.367 33.4368 35.34V35.3388C33.4674 35.3032 33.498 35.2664 33.5273 35.2296C33.5347 35.221 33.5408 35.2136 33.5469 35.2063V35.205C33.5714 35.1756 33.5946 35.1462 33.6191 35.1155C33.6313 35.1008 33.6423 35.0861 33.6545 35.0713V35.0701C33.7267 34.9793 33.7964 34.8886 33.8662 34.7953C33.8845 34.7708 33.9029 34.745 33.9224 34.7193C34.0105 34.6003 34.0961 34.4788 34.1793 34.3574V34.3562C34.2111 34.3108 34.2417 34.2642 34.2735 34.2188C34.3041 34.1721 34.3347 34.1255 34.3652 34.0789C34.3958 34.0299 34.4276 33.982 34.4582 33.9329L34.4619 33.9256C34.4925 33.879 34.523 33.8299 34.5524 33.782C34.5756 33.7428 34.5989 33.7048 34.6221 33.6667C34.6368 33.641 34.6527 33.6152 34.6674 33.5882C34.6731 33.5799 34.6784 33.5713 34.6833 33.5625C34.7175 33.5024 34.7518 33.4423 34.786 33.3821C34.8264 33.3122 34.8655 33.2411 34.9047 33.1699C34.9194 33.1405 34.9353 33.111 34.9512 33.0816C34.9573 33.0718 34.9622 33.062 34.9671 33.0522C34.9854 33.0178 35.0038 32.9822 35.0209 32.9467C35.0392 32.9123 35.0576 32.8767 35.0759 32.8412C35.093 32.8068 35.1114 32.7712 35.1285 32.7357C35.142 32.7087 35.1542 32.6817 35.1677 32.6547C35.1686 32.6525 35.1698 32.6504 35.1713 32.6486C35.1775 32.6351 35.1836 32.6228 35.1885 32.6105C35.19 32.6087 35.1912 32.6066 35.1921 32.6044C35.2056 32.5774 35.2178 32.5492 35.2313 32.5222C35.2484 32.4866 35.2643 32.4498 35.2814 32.4143C35.2924 32.3897 35.3047 32.364 35.3157 32.3382C35.3316 32.3026 35.3487 32.2671 35.3634 32.2302C35.3805 32.1934 35.3964 32.1566 35.4123 32.1186C35.4169 32.1094 35.421 32.1 35.4245 32.0904C35.4331 32.0732 35.4392 32.0561 35.4466 32.0389C35.4661 31.9935 35.4857 31.9469 35.5041 31.9015C35.5261 31.85 35.5469 31.7972 35.5664 31.7457C35.586 31.6979 35.6044 31.6488 35.6227 31.5997L35.63 31.5825C35.9151 30.8297 36.1312 30.0524 36.2759 29.2604V29.2591C36.3575 28.8069 36.4159 28.3508 36.4508 27.8926C36.452 27.8668 36.4545 27.8423 36.4557 27.8177C36.4777 27.5074 36.4875 27.1958 36.4875 26.883C36.4875 26.7443 36.4851 26.607 36.4814 26.4696C36.396 23.5961 35.3743 20.8299 33.5726 18.594C33.5335 18.5449 33.4943 18.4959 33.4539 18.4468C33.4136 18.3977 33.372 18.3499 33.3316 18.302C31.9907 16.7272 30.2995 15.4903 28.3945 14.6912C26.4895 13.8921 24.4239 13.5531 22.3642 13.7015C20.3046 13.8498 18.3085 14.4815 16.5369 15.5454C14.7653 16.6094 13.2678 18.076 12.1651 19.8268C12.1051 19.9225 12.0452 20.0194 11.9877 20.1164C11.929 20.2145 11.8727 20.3126 11.8165 20.412C10.7083 22.3874 10.1277 24.6164 10.1309 26.883Z" fill="#F2F2F2"/>
<path d="M22.7861 18.239C24.9531 18.7966 27.1738 19.1181 29.4096 19.1977C29.7477 19.2162 30.0866 19.2139 30.4244 19.1908C31.1668 19.1282 31.8027 18.8942 32.5108 18.7663C32.8513 18.705 33.2305 18.6602 33.5733 18.5939C33.4941 18.4954 33.4135 18.3981 33.3314 18.3019C32.5923 18.3645 31.8418 18.5695 31.0938 18.6648C29.8223 18.8269 28.3977 18.646 27.4339 18.1998C26.9662 17.9832 26.608 17.713 26.142 17.4955C26.0786 17.4628 26.01 17.4417 25.9393 17.4332C25.8049 17.4291 25.6722 17.4637 25.5567 17.5327C24.7749 17.9285 23.6398 18.2502 22.5863 18.0732C22.5077 18.1348 22.6569 18.205 22.7861 18.239Z" fill="white"/>
<path d="M18.1246 19.6316C18.115 19.6298 18.1053 19.6285 18.0957 19.6268C18.1362 19.6016 18.1743 19.5729 18.2096 19.5408L18.1246 19.6316Z" fill="white"/>
<path d="M11.8145 20.4127C12.2545 20.4479 12.6968 20.4742 13.1415 20.4914C13.4795 20.5098 13.8184 20.5074 14.1563 20.4845C14.8986 20.4216 15.5345 20.1879 16.2427 20.06C16.8918 19.943 17.6805 19.8867 18.0926 19.627C17.0275 19.4421 15.9239 19.8185 14.8257 19.9585C13.9373 20.0681 13.0367 20.0235 12.1635 19.8267C12.0419 20.0185 11.9255 20.2138 11.8145 20.4127Z" fill="white"/>
<path d="M17.1406 38.5628C17.2458 38.6205 17.3522 38.6757 17.4587 38.7284C17.4966 38.7468 17.5357 38.7652 17.5736 38.7849C17.6054 38.7996 17.6373 38.8155 17.6691 38.8303C17.6788 38.8352 17.6874 38.8388 17.696 38.8438C17.7229 38.856 17.7486 38.8683 17.7755 38.8806C17.8048 38.8941 17.8342 38.9075 17.8623 38.921C17.8954 38.9358 17.9272 38.9505 17.9602 38.964C18.0825 39.0192 18.206 39.0719 18.3296 39.1222C18.7723 39.3042 19.2248 39.4615 19.6849 39.5933C19.7057 39.5994 19.7277 39.6055 19.7497 39.6117C19.9467 39.6669 20.1449 39.7172 20.3442 39.7626C20.6929 39.8435 21.0447 39.9098 21.3999 39.9613H21.4023C21.4451 39.9674 21.4867 39.9736 21.5295 39.9797C21.5332 39.9797 21.5369 39.9809 21.5418 39.9809C21.5418 39.9822 21.5418 39.9822 21.543 39.9809C21.5895 39.9871 21.6372 39.9932 21.6837 39.9993C21.6868 40.0003 21.6901 40.0007 21.6934 40.0006C21.7375 40.0067 21.7827 40.0116 21.8268 40.0165C21.8745 40.0214 21.9222 40.0263 21.9699 40.0312C22.0066 40.0349 22.0433 40.0386 22.08 40.0423C22.0831 40.0433 22.0865 40.0438 22.0898 40.0435C22.1228 40.0459 22.1558 40.0496 22.1888 40.0521H22.1937C22.2219 40.0545 22.2512 40.057 22.2794 40.0594C22.6206 40.0864 22.9631 40.0987 23.3105 40.0987C23.6861 40.0987 24.0591 40.084 24.4273 40.0521H24.431C24.5105 40.0447 24.5888 40.0374 24.6671 40.03C24.6879 40.0275 24.7074 40.0263 24.7282 40.0239C24.7319 40.0239 24.7368 40.0226 24.7405 40.0226C24.7466 40.0214 24.7527 40.0214 24.76 40.0202C24.7634 40.0203 24.7667 40.0199 24.7698 40.019C24.7967 40.0165 24.8237 40.0128 24.8518 40.0104L24.9435 39.9993C24.9741 39.9956 25.0047 39.9907 25.0353 39.9871C25.0426 39.9858 25.0487 39.9858 25.0561 39.9846C25.0781 39.9822 25.1001 39.9785 25.1221 39.9748C25.1331 39.9736 25.1441 39.9723 25.1539 39.9711C25.1759 39.9674 25.1967 39.965 25.2188 39.9613H25.22C25.8912 39.8644 26.5538 39.7147 27.2016 39.5136C27.2358 39.5025 27.2701 39.4927 27.3043 39.4817C27.1464 38.743 26.8212 38.0506 26.354 37.458C25.8867 36.8654 25.2899 36.3884 24.6096 36.064C24.7779 35.9032 24.8942 35.6956 24.9435 35.4678C24.9753 35.321 24.9778 35.1693 24.9509 35.0216C24.9241 34.8738 24.8683 34.7328 24.787 34.6067C24.6282 34.3622 24.3792 34.191 24.0946 34.1307L22.2818 33.7504C21.99 33.6933 21.6875 33.7541 21.4401 33.9195C21.1927 34.0849 21.0205 34.3416 20.9607 34.6336C20.9422 34.7232 20.934 34.8146 20.9363 34.906C19.1907 36.0714 17.9345 37.2797 17.1406 38.5628Z" fill="#0654DF"/>
<path d="M24.311 32.5232C26.7479 32.5232 28.7235 30.542 28.7235 28.098C28.7235 25.6541 26.7479 23.6729 24.311 23.6729C21.874 23.6729 19.8984 25.6541 19.8984 28.098C19.8984 30.542 21.874 32.5232 24.311 32.5232Z" fill="#9E616A"/>
<path d="M23.6861 32.2865C22.5814 32.5857 21.3636 32.1879 20.5015 31.4333C19.6394 30.6788 19.1001 29.6096 18.7894 28.5052C18.5618 27.6963 18.4539 26.7985 18.813 26.0391C19.1721 25.2797 20.1386 24.7674 20.8843 25.151C20.4243 24.6135 20.6541 23.7246 21.1913 23.2648C21.7286 22.805 22.4663 22.6732 23.1689 22.6012C24.1885 22.4966 25.2418 22.4849 26.2121 22.8162C27.1824 23.1475 28.064 23.8718 28.3677 24.8535C28.6778 24.9983 29.0271 25.0359 29.3608 24.9604C29.6945 24.8848 29.9938 24.7004 30.2119 24.436C30.2681 24.7396 30.2229 25.0534 30.0834 25.3288C29.9439 25.6041 29.7178 25.8257 29.44 25.9592L30.9267 25.4758C31.1824 26.0186 30.7344 26.6903 30.1615 26.8641C29.5886 27.0379 28.9701 26.8479 28.4265 26.5968C27.8828 26.3457 27.356 26.0283 26.7654 25.9303C26.1749 25.8324 25.4813 26.0227 25.2081 26.5568C25.0651 26.8365 25.0576 27.1642 24.9745 27.4673C24.8915 27.7705 24.6811 28.0848 24.3685 28.1096C24.1711 28.1253 23.9778 28.0198 23.7809 28.0414C23.6601 28.0652 23.5488 28.1239 23.4607 28.2102C23.3726 28.2965 23.3115 28.4067 23.2849 28.5273C23.2359 28.7693 23.2353 29.0187 23.2832 29.2609L23.6608 32.1557L23.6861 32.2865Z" fill="#2F2E41"/>
</g>
<defs>
<clipPath id="clip0_5385_33893">
<rect width="99" height="77.2683" fill="white"/>
</clipPath>
</defs>
</svg>
