<svg width="92" height="77" viewBox="0 0 92 77" fill="none" xmlns="http://www.w3.org/2000/svg">
<g clip-path="url(#clip0_5385_33960)">
<path d="M48.6903 10.8155C51.7104 8.58449 55.9623 7.72923 59.2893 9.46972C55.5439 11.0959 52.4944 13.9945 50.6804 17.6526C49.986 19.0659 49.3607 20.7102 47.9278 21.3634C47.0363 21.7699 45.984 21.6914 45.0608 21.3632C44.1376 21.035 43.3163 20.4774 42.5065 19.9258L42.2637 19.8965C43.7048 16.4294 45.6702 13.0465 48.6903 10.8155Z" fill="#F0F0F0"/>
<path d="M59.2626 9.54359C56.1562 9.64091 53.1595 10.7145 50.6981 12.612C50.1609 13.011 49.6901 13.4923 49.3028 14.038C48.9427 14.5817 48.7348 15.212 48.7007 15.8633C48.6567 16.4699 48.6819 17.0955 48.4912 17.6809C48.3891 17.9791 48.2252 18.2523 48.0101 18.4827C47.795 18.7131 47.5337 18.8954 47.2432 19.0177C46.5273 19.3413 45.7379 19.3883 44.9643 19.4074C44.1054 19.4287 43.2129 19.4372 42.4318 19.8417C42.3371 19.8907 42.2666 19.7409 42.3611 19.692C43.7202 18.9884 45.3083 19.4474 46.7367 19.0287C47.4032 18.8333 48.0149 18.4358 48.2825 17.7708C48.5165 17.1893 48.4911 16.5441 48.5303 15.9295C48.5543 15.2937 48.7336 14.6734 49.0526 14.1228C49.4108 13.5592 49.8624 13.0606 50.3879 12.6484C51.5562 11.7017 52.8661 10.9445 54.2697 10.4046C55.8681 9.77961 57.5617 9.43264 59.2771 9.37871C59.3833 9.37542 59.3681 9.54031 59.2626 9.54359V9.54359Z" fill="white"/>
<path d="M51.4554 11.9545C51.1931 11.4983 51.1015 10.9637 51.197 10.4462C51.2924 9.92873 51.5688 9.46204 51.9766 9.12947C52.0593 9.06246 52.1673 9.1879 52.0845 9.25499C51.7042 9.56398 51.4468 9.99873 51.3589 10.4808C51.271 10.9629 51.3583 11.4605 51.605 11.8838C51.6585 11.9759 51.5086 12.046 51.4554 11.9545V11.9545Z" fill="white"/>
<path d="M48.6825 15.553C49.7185 15.8425 50.8256 15.731 51.783 15.2406C51.8778 15.1919 51.9483 15.3416 51.8536 15.3902C50.8564 15.8987 49.704 16.0124 48.6266 15.7087C48.524 15.6797 48.5804 15.5241 48.6825 15.553Z" fill="white"/>
<path d="M55.8598 9.99894C55.9245 10.1966 56.0373 10.3751 56.188 10.5184C56.3388 10.6617 56.5227 10.7653 56.7234 10.8199C56.8264 10.8476 56.7699 11.0032 56.6676 10.9757C56.4461 10.9143 56.2431 10.7996 56.0762 10.6417C55.9093 10.4837 55.7837 10.2873 55.7102 10.0696C55.7015 10.0496 55.7008 10.0272 55.7081 10.0067C55.7155 9.98624 55.7303 9.96934 55.7497 9.95944C55.7695 9.95019 55.7923 9.94915 55.8129 9.95654C55.8335 9.96394 55.8504 9.97917 55.8598 9.99894H55.8598Z" fill="white"/>
<path d="M61.928 21.9058C61.8632 21.8903 61.7984 21.8749 61.7326 21.8603C60.8603 21.6569 59.9729 21.5246 59.0792 21.4649C59.0102 21.4591 58.9402 21.4544 58.8711 21.4507C56.7165 21.3297 54.5581 21.6098 52.5057 22.2767C51.6893 22.5428 50.8943 22.8707 50.1276 23.2574C49.0687 23.7916 47.9632 24.455 46.8233 24.6039C46.7046 24.6207 46.5849 24.6302 46.4649 24.6323L42.2478 20.195C42.2433 20.1801 42.2377 20.1661 42.2331 20.1511L42.0566 19.9817C42.0948 19.959 42.1348 19.9362 42.173 19.9135C42.1951 19.9002 42.2181 19.888 42.2402 19.8747C42.2552 19.8662 42.2702 19.8577 42.2833 19.8491C42.2883 19.8463 42.2933 19.8435 42.2973 19.8416C42.3104 19.833 42.3234 19.8265 42.3355 19.8189C42.559 19.6912 42.7838 19.5648 43.0099 19.4399C43.011 19.4389 43.011 19.4389 43.0129 19.4389C44.7383 18.491 46.5579 17.6787 48.443 17.1685C48.4997 17.1532 48.5574 17.1368 48.616 17.1235C49.467 16.8983 50.3349 16.7429 51.2112 16.659C51.6912 16.6147 52.1731 16.5946 52.6551 16.599C53.9005 16.6126 55.136 16.8221 56.3163 17.2196C58.6692 18.0125 60.7422 19.5491 61.8454 21.7378C61.8736 21.7938 61.9009 21.8488 61.928 21.9058Z" fill="#F0F0F0"/>
<path d="M61.8607 21.9493C59.3219 20.1568 56.2828 19.2098 53.1751 19.2428C52.5059 19.238 51.8402 19.3388 51.2025 19.5413C50.5876 19.7587 50.0421 20.1368 49.6227 20.6362C49.2223 21.0941 48.8658 21.6088 48.3611 21.9614C48.1001 22.138 47.8047 22.2575 47.4942 22.3119C47.1838 22.3664 46.8654 22.3546 46.5598 22.2774C45.7934 22.1047 45.1348 21.667 44.5056 21.2165C43.807 20.7164 43.0893 20.1858 42.2221 20.0384C42.117 20.0206 42.1509 19.8586 42.2558 19.8764C43.7646 20.1328 44.7562 21.4556 46.1488 21.9812C46.7987 22.2265 47.5263 22.2774 48.1404 21.9075C48.6773 21.5841 49.0455 21.0537 49.4468 20.5866C49.8488 20.0933 50.3654 19.706 50.9516 19.4584C51.577 19.2241 52.2377 19.0978 52.9055 19.0852C54.4083 19.0326 55.9101 19.2167 57.3558 19.6307C59.0083 20.0941 60.5695 20.8367 61.9716 21.8264C62.0584 21.8877 61.9469 22.0102 61.8607 21.9493L61.8607 21.9493Z" fill="white"/>
<path d="M54.1765 19.1733C54.2417 18.6512 54.4904 18.1692 54.8782 17.8135C55.266 17.4578 55.7676 17.2515 56.2935 17.2315C56.3999 17.2278 56.4106 17.393 56.304 17.3967C55.8143 17.4144 55.3471 17.6066 54.9867 17.9386C54.6263 18.2705 54.3964 18.7204 54.3385 19.207C54.3258 19.3127 54.1639 19.2784 54.1765 19.1733H54.1765Z" fill="white"/>
<path d="M49.7957 20.3774C50.4485 21.2323 51.3996 21.8098 52.4593 21.9946C52.5643 22.0128 52.5305 22.1748 52.4256 22.1566C51.3232 21.9622 50.3347 21.3592 49.6573 20.4681C49.5928 20.3831 49.7316 20.2928 49.7957 20.3773V20.3774Z" fill="white"/>
<path d="M58.8705 20.2644C58.8031 20.4612 58.7857 20.6716 58.8198 20.8768C58.8539 21.0819 58.9384 21.2754 59.0657 21.4399C59.1312 21.524 58.9924 21.6142 58.9273 21.5306C58.7875 21.3483 58.6944 21.1345 58.6563 20.9079C58.6181 20.6813 58.636 20.4488 58.7084 20.2307C58.7135 20.2096 58.7265 20.1912 58.7447 20.1793C58.7629 20.1674 58.7849 20.1628 58.8063 20.1666C58.8277 20.1711 58.8465 20.184 58.8585 20.2023C58.8705 20.2206 58.8748 20.2429 58.8705 20.2644V20.2644Z" fill="white"/>
<path d="M47.8941 14.1344H47.5672V5.18163C47.5672 4.50117 47.4332 3.82737 47.1728 3.1987C46.9124 2.57004 46.5308 1.99882 46.0496 1.51766C45.5684 1.03651 44.9972 0.654831 44.3686 0.39443C43.7399 0.134028 43.0661 3.66839e-07 42.3856 0H23.418C22.7375 -1.4673e-06 22.0637 0.134024 21.435 0.394423C20.8064 0.654823 20.2352 1.0365 19.754 1.51765C19.2728 1.99881 18.8912 2.57003 18.6308 3.19869C18.3704 3.82736 18.2363 4.50115 18.2363 5.18161V54.2973C18.2363 55.6715 18.7822 56.9895 19.754 57.9612C20.7257 58.933 22.0437 59.4789 23.4179 59.4789H42.3856C43.7599 59.4789 45.0778 58.933 46.0496 57.9612C47.0213 56.9895 47.5672 55.6715 47.5672 54.2973V20.5072H47.8941V14.1344Z" fill="#3F3D56"/>
<path d="M42.5946 1.34815H40.1187C40.2326 1.6273 40.276 1.93016 40.2453 2.23007C40.2145 2.52997 40.1105 2.81771 39.9423 3.06793C39.7741 3.31815 39.547 3.52317 39.281 3.66494C39.0149 3.80671 38.718 3.88088 38.4166 3.8809H27.5502C27.2488 3.88088 26.9519 3.80672 26.6858 3.66495C26.4198 3.52318 26.1927 3.31815 26.0245 3.06793C25.8563 2.81771 25.7523 2.52997 25.7215 2.23007C25.6908 1.93016 25.7342 1.62729 25.8481 1.34814H23.5356C22.5093 1.34814 21.5251 1.75583 20.7994 2.48152C20.0737 3.2072 19.666 4.19144 19.666 5.21772V54.2613C19.666 54.7694 19.7661 55.2726 19.9606 55.7421C20.155 56.2116 20.4401 56.6382 20.7994 56.9975C21.1587 57.3568 21.5853 57.6418 22.0548 57.8363C22.5242 58.0308 23.0274 58.1309 23.5356 58.1309H42.5946C43.1028 58.1309 43.606 58.0308 44.0754 57.8363C44.5449 57.6419 44.9715 57.3568 45.3308 56.9975C45.6901 56.6382 45.9752 56.2116 46.1696 55.7421C46.3641 55.2726 46.4642 54.7695 46.4642 54.2613V5.21772C46.4642 4.19144 46.0565 3.2072 45.3308 2.48152C44.6051 1.75583 43.6209 1.34815 42.5946 1.34815Z" fill="white"/>
<path d="M33.4306 42.3762C32.0272 42.3775 30.6372 42.102 29.3403 41.5655C28.0434 41.029 26.865 40.2421 25.8726 39.2497C24.8802 38.2572 24.0932 37.0789 23.5567 35.782C23.0203 34.4851 22.7448 33.0951 22.7461 31.6916C22.7441 29.7209 23.288 27.7881 24.3175 26.1075C25.3469 24.427 26.8218 23.0645 28.5784 22.1711C29.8517 21.5233 31.2418 21.1368 32.6668 21.0345C34.0917 20.9323 35.5228 21.1162 36.8755 21.5756C39.2713 22.392 41.2995 24.0323 42.5989 26.2044C43.8983 28.3764 44.3845 30.9392 43.971 33.4362C43.5574 35.9333 42.271 38.2025 40.3407 39.8397C38.4104 41.4768 35.9617 42.3757 33.4306 42.3762L33.4306 42.3762ZM33.4306 21.4261C31.8097 21.4213 30.2113 21.8047 28.7689 22.5442C27.5081 23.1866 26.3937 24.0826 25.4957 25.1761C24.5977 26.2696 23.9354 27.537 23.5505 28.8986C23.1655 30.2602 23.0662 31.6867 23.2588 33.0885C23.4514 34.4903 23.9317 35.8372 24.6695 37.0446C25.4074 38.2519 26.3869 39.2937 27.5465 40.1046C28.7062 40.9154 30.0209 41.4777 31.4082 41.7563C32.7955 42.0348 34.2254 42.0236 35.6081 41.7232C36.9909 41.4229 38.2966 40.8399 39.4433 40.011C39.9977 39.6109 40.5104 39.156 40.9736 38.6532C42.3282 37.1875 43.2261 35.3586 43.5572 33.3904C43.8883 31.4223 43.6383 29.4003 42.8378 27.572C42.0373 25.7438 40.721 24.1886 39.0502 23.097C37.3793 22.0054 35.4265 21.4248 33.4306 21.4261Z" fill="#F0F0F0"/>
<path d="M10.2792 22.2094C10.5724 22.2461 10.8541 22.3468 11.1043 22.5042C11.3545 22.6616 11.5671 22.8719 11.7272 23.1204C11.8873 23.3688 11.9909 23.6494 12.0309 23.9422C12.0708 24.2351 12.0461 24.5332 11.9584 24.8154L15.5083 27.7724L14.2375 30.368L9.28297 26.1217C8.81855 25.9429 8.43585 25.6 8.20738 25.1579C7.97891 24.7158 7.92053 24.2053 8.04333 23.7231C8.16613 23.2408 8.46156 22.8204 8.87364 22.5414C9.28572 22.2624 9.78582 22.1443 10.2792 22.2094L10.2792 22.2094Z" fill="#FFB6B6"/>
<path d="M43.4343 34.5409C43.3631 33.7755 43.0687 32.3997 42.819 31.891C42.0512 29.8815 37.0905 28.2299 36.4244 28.017L36.2554 26.1385L29.3628 25.3968L28.4884 27.7991L26.0164 28.7265C25.8485 28.7891 25.6966 28.8881 25.5715 29.0163C25.4464 29.1445 25.3513 29.2988 25.2929 29.4681L23.075 30.1092L20.8864 30.7419L13.2829 25.3843L12.9239 25.6189L10.5245 27.1846L10.1543 27.4262L19.9939 36.3035L23.649 35.4459L26.3976 34.7992L26.6322 35.7518L26.0247 39.0982C27.7849 40.859 30.1147 41.935 32.5965 42.1334C35.0782 42.3318 37.5494 41.6394 39.5669 40.1806L41.1283 38.7951C42.2166 37.6184 43.0199 36.2073 43.4761 34.6707L43.4343 34.5409Z" fill="#E4E4E4"/>
<path d="M34.9735 23.8604C37.5754 22.9989 38.9863 20.1913 38.1248 17.5893C37.2634 14.9874 34.4557 13.5765 31.8538 14.438C29.2519 15.2994 27.8409 18.1071 28.7024 20.709C29.5639 23.3109 32.3715 24.7218 34.9735 23.8604Z" fill="#FFB6B6"/>
<path d="M29.4946 13.4917C29.9771 12.8027 30.7011 12.3205 31.5228 12.1408C32.3352 11.9737 33.1808 12.1288 33.8811 12.5733C34.6425 12.2666 35.4635 12.0631 36.2702 12.1666C37.0768 12.27 37.8674 12.7206 38.2406 13.4628C38.3191 13.6551 38.4144 13.8401 38.5253 14.0157C38.8541 14.4545 39.4652 14.5114 40.0049 14.5324C39.7321 14.6916 39.4592 14.8507 39.1862 15.0098C39.4582 15.1366 39.7302 15.2633 40.0022 15.39C39.632 15.5314 39.2618 15.6727 38.8917 15.814C39.7532 16.5713 39.9616 17.9191 39.6354 19.0491C39.3266 20.1189 38.6185 21.0195 37.8277 21.7905C37.6735 21.2152 37.8432 20.5915 37.9562 19.9958C38.0755 19.3665 38.0946 18.6306 37.654 18.1863C37.3567 17.8865 36.9207 17.796 36.5095 17.7233C34.4356 17.3565 32.3425 17.1079 30.2404 16.9789C29.959 16.94 29.6724 16.9693 29.4048 17.0642C28.8932 17.2915 28.6876 17.9158 28.5394 18.4694C28.4684 17.4977 28.5251 16.521 28.7081 15.5641C28.8484 14.8317 29.0693 14.0987 29.4946 13.4917Z" fill="#2F2E41"/>
<path d="M35.9448 47.4101H30.0787C29.875 47.4101 29.6796 47.3292 29.5355 47.1851C29.3915 47.0411 29.3105 46.8457 29.3105 46.6419C29.3105 46.4382 29.3915 46.2428 29.5355 46.0988C29.6796 45.9547 29.875 45.8738 30.0787 45.8738H35.9448C36.1485 45.8738 36.3439 45.9547 36.4879 46.0988C36.632 46.2428 36.7129 46.4382 36.7129 46.6419C36.7129 46.8457 36.632 47.0411 36.4879 47.1851C36.3439 47.3292 36.1485 47.4101 35.9448 47.4101Z" fill="#0654DF"/>
<path d="M16.6953 6.30256H0.56031C0.411626 6.30233 0.269109 6.2431 0.164056 6.13788C0.0590035 6.03266 0 5.89005 0 5.74137C0 5.59268 0.0590035 5.45008 0.164056 5.34486C0.269109 5.23964 0.411626 5.18041 0.56031 5.18018H16.6953C16.8442 5.18018 16.9869 5.2393 17.0921 5.34455C17.1974 5.44979 17.2565 5.59253 17.2565 5.74137C17.2565 5.89021 17.1974 6.03295 17.0921 6.13819C16.9869 6.24343 16.8442 6.30256 16.6953 6.30256Z" fill="#0654DF"/>
<path d="M26.012 9.88672H0.561158C0.41233 9.88672 0.269596 9.8276 0.164359 9.72236C0.0591211 9.61713 0 9.47439 0 9.32556C0 9.17674 0.0591211 9.034 0.164359 8.92876C0.269596 8.82353 0.41233 8.7644 0.561158 8.7644H26.012C26.1608 8.7644 26.3036 8.82353 26.4088 8.92876C26.514 9.034 26.5732 9.17674 26.5732 9.32556C26.5732 9.47439 26.514 9.61713 26.4088 9.72236C26.3036 9.8276 26.1608 9.88672 26.012 9.88672Z" fill="#0654DF"/>
<path d="M21.1212 13.2637H0.561158C0.41233 13.2637 0.269596 13.2046 0.164359 13.0993C0.0591213 12.9941 0 12.8513 0 12.7025C0 12.5537 0.0591213 12.411 0.164359 12.3057C0.269596 12.2005 0.41233 12.1414 0.561158 12.1414H21.1212C21.27 12.1414 21.4127 12.2005 21.518 12.3057C21.6232 12.411 21.6823 12.5537 21.6823 12.7025C21.6823 12.8513 21.6232 12.9941 21.518 13.0993C21.4127 13.2046 21.27 13.2637 21.1212 13.2637Z" fill="#CACACA"/>
<path d="M12.1548 16.6279H0.561158C0.41233 16.6279 0.269596 16.5688 0.164359 16.4636C0.0591212 16.3583 0 16.2156 0 16.0668C0 15.9179 0.0591212 15.7752 0.164359 15.67C0.269596 15.5647 0.41233 15.5056 0.561158 15.5056H12.1548C12.3036 15.5056 12.4463 15.5647 12.5516 15.67C12.6568 15.7752 12.7159 15.9179 12.7159 16.0668C12.7159 16.2156 12.6568 16.3583 12.5516 16.4636C12.4463 16.5688 12.3036 16.6279 12.1548 16.6279Z" fill="#CACACA"/>
<path d="M18.5585 19.9919H0.560271C0.411596 19.9917 0.269094 19.9325 0.164048 19.8273C0.0590013 19.7221 0 19.5795 0 19.4308C0 19.2821 0.0590013 19.1395 0.164048 19.0343C0.269094 18.9291 0.411596 18.8699 0.560271 18.8696H18.5585C18.7072 18.8699 18.8497 18.9291 18.9547 19.0343C19.0598 19.1395 19.1188 19.2821 19.1188 19.4308C19.1188 19.5795 19.0598 19.7221 18.9547 19.8273C18.8497 19.9325 18.7072 19.9917 18.5585 19.9919Z" fill="#CACACA"/>
<path d="M69.2826 74.8934L67.8364 74.8932L67.1484 69.3152L69.2829 69.3153L69.2826 74.8934Z" fill="#9F616A"/>
<path d="M69.8532 76.8948L64.332 76.8945V76.8247C64.3321 76.2548 64.5585 75.7082 64.9615 75.3052C65.3645 74.9022 65.9111 74.6758 66.481 74.6758H66.4812L67.4897 73.9106L69.3713 74.6759L69.8533 74.6759L69.8532 76.8948Z" fill="#2F2E41"/>
<path d="M68.4416 48.6777L67.8038 40.9012L67.3027 37.9824L70.1081 37.3628L71.039 41.3589L70.2279 48.8935C70.3915 49.094 70.4914 49.3388 70.5148 49.5965C70.5382 49.8542 70.4841 50.113 70.3593 50.3397C70.2345 50.5664 70.0447 50.7505 69.8145 50.8686C69.5842 50.9866 69.3239 51.0331 69.067 51.002C68.8101 50.971 68.5684 50.8639 68.3728 50.6944C68.1773 50.5249 68.0369 50.3009 67.9697 50.051C67.9024 49.8011 67.9114 49.5369 67.9955 49.2922C68.0796 49.0475 68.235 48.8335 68.4416 48.6777H68.4416Z" fill="#9F616A"/>
<path d="M61.6009 74.8934L60.1548 74.8932L59.4668 69.3152L61.6012 69.3153L61.6009 74.8934Z" fill="#9F616A"/>
<path d="M59.2865 50.4407L58.6454 51.5497C58.6454 51.5497 57.941 51.7421 58.1712 54.0384C58.4015 56.3347 58.4114 69.9395 59.5258 71.6136L59.7274 73.0511L61.8317 73.2522L61.8848 71.9767L64.3939 54.2551C64.3939 54.2551 65.8717 71.652 67.0942 72.0777L67.5358 73.5271L69.4643 73.528L69.3504 71.8199L69.4747 50.261L59.2865 50.4407Z" fill="#2F2E41"/>
<path d="M58.5834 51.465L58.5391 51.4536C59.8623 46.5043 59.4806 40.0954 58.5463 33.2135L58.5463 33.185L61.9239 30.0913H64.857L67.7646 31.9677C69.6443 32.9075 70.0715 34.8978 70.0756 34.9179L70.0785 34.932L68.9267 38.9522L69.7944 50.5786L69.7954 50.592L69.7904 50.6046C69.5096 51.3165 68.7571 51.2152 67.8859 51.0977C67.0161 50.9805 63.8109 52.0528 62.8281 52.0528C60.9075 52.0528 58.7206 51.5002 58.5834 51.465Z" fill="#E4E4E4"/>
<path d="M67.1539 33.5347L68.4139 32.9866L70.074 35.0219L71.4196 41.5441L66.8105 40.8457L67.1539 33.5347Z" fill="#E4E4E4"/>
<path d="M47.7738 45.5617L53.5338 40.2982L55.5357 38.1157L57.7424 39.9553L55.1517 43.137L48.6963 47.1065C48.6379 47.3586 48.5054 47.5874 48.3159 47.7636C48.1264 47.9398 47.8886 48.0554 47.6329 48.0954C47.3773 48.1354 47.1155 48.098 46.8813 47.9882C46.647 47.8783 46.4509 47.7008 46.3183 47.4787C46.1856 47.2565 46.1224 46.9998 46.1368 46.7414C46.1511 46.4831 46.2424 46.2349 46.3989 46.0288C46.5554 45.8227 46.7699 45.6681 47.0149 45.5849C47.2599 45.5017 47.5242 45.4936 47.7738 45.5617L47.7738 45.5617Z" fill="#9F616A"/>
<path d="M53.4082 40.3555L55.0035 38.2838C55.0167 38.2541 56.3403 35.2963 57.4876 34.0112C58.6645 32.6929 59.591 33.367 59.6003 33.3743L59.6233 33.3917L59.6874 38.26L55.27 43.5383L53.4082 40.3555Z" fill="#E4E4E4"/>
<path d="M65.7523 27.1774C65.9902 25.7116 64.9948 24.3306 63.529 24.0927C62.0633 23.8548 60.6822 24.8502 60.4444 26.316C60.2065 27.7817 61.2019 29.1628 62.6676 29.4007C64.1334 29.6385 65.5144 28.6431 65.7523 27.1774Z" fill="#9F616A"/>
<path d="M60.6411 26.3476C60.6411 26.3476 60.6196 25.4024 60.5001 24.9841C60.3806 24.5659 60.1416 24.2074 60.2611 24.2074C60.3806 24.2074 60.4403 23.9086 60.4403 23.9086C60.4403 23.9086 60.5598 23.8489 60.6196 23.9086C60.6793 23.9684 60.7391 23.4904 60.7391 23.4904C60.7391 23.4904 60.7988 23.3112 60.8586 23.4307C60.9183 23.5502 60.9183 23.4904 60.9781 23.3112C61.0378 23.1319 61.3366 23.0124 61.3366 23.0124C61.3366 23.0124 62.4718 23.0722 62.651 22.8332C62.8303 22.5942 64.8618 22.7734 65.28 23.0722C65.6982 23.3709 67.5504 24.4464 67.2517 25.3426C66.953 26.2388 66.093 28.3024 65.8775 28.5093C65.5367 28.8365 65.3008 28.9544 63.6883 29.2753C63.3727 29.3381 61.762 28.3079 61.762 28.1287C61.762 27.9495 61.9562 27.381 61.644 27.303C61.1722 27.185 61.1191 27.7816 60.9996 27.6023C60.8801 27.4231 60.6411 26.3476 60.6411 26.3476Z" fill="#2F2E41"/>
<path d="M62.1715 76.8948L56.6504 76.8945V76.8247C56.6504 76.2548 56.8769 75.7082 57.2799 75.3052C57.6829 74.9022 58.2294 74.6758 58.7994 74.6758H58.7995L59.808 73.9106L61.6897 74.6759L62.1717 74.6759L62.1715 76.8948Z" fill="#2F2E41"/>
<path d="M90.8709 77.0001H0.465126C0.421021 77.0001 0.378725 76.9826 0.347538 76.9514C0.316351 76.9202 0.298828 76.8779 0.298828 76.8338C0.298828 76.7897 0.316351 76.7474 0.347538 76.7162C0.378725 76.685 0.421021 76.6675 0.465126 76.6675H90.8709C90.915 76.6675 90.9573 76.685 90.9885 76.7162C91.0197 76.7474 91.0372 76.7897 91.0372 76.8338C91.0372 76.8779 91.0197 76.9202 90.9885 76.9514C90.9573 76.9826 90.915 77.0001 90.8709 77.0001Z" fill="#CACACA"/>
</g>
<defs>
<clipPath id="clip0_5385_33960">
<rect width="91.0369" height="77" fill="white"/>
</clipPath>
</defs>
</svg>
