<svg width="37" height="37" viewBox="0 0 37 37" fill="none" xmlns="http://www.w3.org/2000/svg">
<rect x="3.72852" y="3.02466" width="30.2461" height="30.2461" rx="3.78076" fill="#1C2A3A"/>
<path d="M26.8463 14.5225C26.856 14.6974 26.856 14.8723 26.856 15.0376C26.8536 16.1138 26.6964 17.1841 26.3895 18.2157C25.7426 20.5929 24.3224 22.687 22.3529 24.1672C20.3835 25.6473 17.9771 26.4293 15.5137 26.3896C13.3452 26.392 11.2223 25.7676 9.40039 24.5915C9.71637 24.6306 10.0345 24.6501 10.3529 24.6498C12.1472 24.6515 13.8899 24.049 15.3 22.9392C14.4695 22.9236 13.6645 22.6493 12.9972 22.1546C12.33 21.6598 11.8337 20.9692 11.5775 20.179C11.8248 20.2214 12.0751 20.2441 12.3259 20.2471C12.6841 20.2484 13.0407 20.1993 13.3853 20.1013C12.5323 19.9324 11.7584 19.4881 11.1825 18.8366C10.6065 18.1852 10.2604 17.3627 10.1974 16.4954C10.1812 16.3959 10.1747 16.295 10.1779 16.1941V16.1455C10.7318 16.4539 11.352 16.6239 11.9857 16.6412C11.4402 16.2777 10.9933 15.7848 10.6846 15.2065C10.376 14.6282 10.2153 13.9825 10.2168 13.327C10.2161 12.6212 10.4004 11.9275 10.7514 11.3151C11.7523 12.5485 13.0018 13.5572 14.4185 14.2756C15.8352 14.9939 17.3873 15.4059 18.9738 15.4846C18.773 14.6294 18.8603 13.7318 19.2221 12.9313C19.5839 12.1308 20.1999 11.4722 20.9745 11.0578C21.7491 10.6434 22.6388 10.4963 23.5055 10.6395C24.3722 10.7827 25.1674 11.2081 25.7675 11.8497C26.6624 11.6731 27.5204 11.3443 28.3042 10.8778C28.3379 11.5544 28.2251 12.2304 27.9735 12.8594C27.7219 13.4884 27.3374 14.0557 26.8463 14.5225Z" fill="white"/>
</svg>
