<svg width="37" height="37" viewBox="0 0 37 37" fill="none" xmlns="http://www.w3.org/2000/svg">
<path d="M34.8588 14.6916C34.9293 12.5269 34.4543 10.3793 33.4774 8.44639C32.8246 7.63974 31.9041 7.09404 30.8831 6.90815C26.691 6.5442 22.4828 6.39623 18.2754 6.465C14.0682 6.39587 9.86021 6.54383 5.66825 6.90815C4.83779 7.06322 4.06891 7.45209 3.45177 8.02908C2.09877 9.28331 2 11.4332 1.7963 13.2442C1.57311 16.5084 1.57311 19.7841 1.7963 23.0484C1.83312 24.0706 1.98617 25.0853 2.25247 26.0729C2.43282 26.8375 2.80019 27.5455 3.32153 28.1332C3.93876 28.7415 4.72454 29.15 5.57696 29.3059C8.83722 29.7098 12.1227 29.8755 15.4071 29.8016V29.8017C20.6912 29.8862 25.3471 29.7967 30.83 29.3844C31.7063 29.234 32.5159 28.8202 33.1508 28.1981C33.5633 27.7879 33.8757 27.2882 34.0638 26.7377C34.6106 25.0813 34.8792 23.3458 34.8588 21.6016C34.9106 20.7016 34.9106 15.5915 34.8588 14.6916ZM23.8034 17.8074C23.8015 17.8064 23.7996 17.8053 23.7977 17.8043C22.5438 18.4989 21.0943 19.2354 19.5662 20.0108C18.0309 20.7899 16.4176 21.608 14.8467 22.462V13.101V13.1009C16.3395 13.8833 17.8161 14.6524 19.3008 15.4296C20.7836 16.2059 22.2746 16.9903 23.7977 17.8043C23.8035 17.8011 23.8105 17.7977 23.8164 17.7944L23.8034 17.8074Z" fill="#1C2A3A"/>
</svg>
